<?xml version="1.0" encoding="utf-8"?>
<!-- Generator: Adobe Illustrator 17.0.0, SVG Export Plug-In . SVG Version: 6.00 Build 0)  -->
<!DOCTYPE svg PUBLIC "-//W3C//DTD SVG 1.1//EN" "http://www.w3.org/Graphics/SVG/1.1/DTD/svg11.dtd">
<svg version="1.1" xmlns="http://www.w3.org/2000/svg" xmlns:xlink="http://www.w3.org/1999/xlink" x="0px" y="0px" width="300px"
	 height="300px" viewBox="0 0 300 300" enable-background="new 0 0 300 300" xml:space="preserve">
<g id="Capa_1">
	<path fill="#B56EDC" d="M0,274.5c0,0,20,17.5,83.5,17.5s96-21.5,150-21.5S304,292,383,292s88.5,61,88.5,61l-506,2.5L0,274.5z"/>
	<rect x="103" y="79" fill="none" width="90.25" height="134.5"/>
	<text transform="matrix(1 0 0 1 103 197.1904)" fill="#B56EDC" font-family="'DIN-RegularAlternate'" font-size="166">0</text>
	<rect x="115" y="73.5" fill="none" width="73.5" height="19.5"/>
	<text transform="matrix(1 0 0 1 115 88.8301)" fill="#B56EDC" font-family="'Raleway-Bold'" font-size="21">NIVEL</text>
</g>
<g id="Capa_2" display="none">
	<path display="inline" fill="#5BD2DC" d="M-45.5,228.053c0,0,20,19.919,83.5,19.919S134,223.5,188,223.5s70.5,24.471,149.5,24.471
		s88.5,69.431,88.5,69.431l-506,2.846L-45.5,228.053z"/>
	<rect x="103" y="79" display="inline" fill="none" width="90.25" height="134.5"/>
	
		<text transform="matrix(1 0 0 1 117.167 197.1904)" display="inline" fill="#5BD2DC" font-family="'DIN-RegularAlternate'" font-size="166">1</text>
	<rect x="115" y="73.5" display="inline" fill="none" width="73.5" height="19.5"/>
	<text transform="matrix(1 0 0 1 115 88.8301)" display="inline" fill="#5BD2DC" font-family="'Raleway-Bold'" font-size="21">NIVEL</text>
</g>
<g id="Capa_3" display="none">
	<g display="inline">
		<path fill="#5BDC90" d="M325,210.506c-79,0-95.5-34.506-149.5-34.506c-15.867,0-29.873,2.989-43.359,7.197l-3.437,3.37h52.125
			v10.624h-67.895v-7.289c-25.561,9.585-51.547,20.605-87.434,20.605c-63.5,0-83.5-28.086-83.5-28.086l-34.5,130l506-4.012
			C413.5,308.408,404,210.506,325,210.506z"/>
		<path fill="#5BDC90" d="M162.567,153.366c4.425-4.315,8.077-8.798,10.956-13.446c2.877-4.648,4.316-9.96,4.316-15.936
			c0-4.205-0.775-8.16-2.324-11.869c-1.551-3.706-3.735-6.915-6.557-9.628c-2.822-2.71-6.199-4.84-10.127-6.391
			c-3.93-1.549-8.328-2.324-13.197-2.324c-4.648,0-8.938,0.775-12.865,2.324c-3.93,1.551-7.361,3.68-10.292,6.391
			c-2.934,2.713-5.203,5.95-6.806,9.711c-1.605,3.764-2.407,7.859-2.407,12.284h11.952c0-3.097,0.553-5.864,1.66-8.3
			c1.105-2.433,2.573-4.537,4.399-6.308c1.826-1.769,3.984-3.125,6.474-4.067c2.49-0.939,5.117-1.411,7.885-1.411
			c2.988,0,5.727,0.498,8.217,1.494c2.489,0.996,4.619,2.381,6.392,4.15c1.768,1.771,3.153,3.875,4.149,6.308
			c0.996,2.436,1.493,5.037,1.493,7.802c0,4.096-0.995,7.968-2.987,11.62s-4.759,7.195-8.3,10.624l-41.666,40.172v3.335
			c6.378-2.392,12.735-4.685,19.207-6.705L162.567,153.366z"/>
	</g>
	<rect x="115" y="73.5" display="inline" fill="none" width="73.5" height="19.5"/>
	<text transform="matrix(1 0 0 1 115 88.8301)" display="inline" fill="#5BDC90" font-family="'Raleway-Bold'" font-size="21">NIVEL</text>
</g>
<g id="Capa_4" display="none">
	<g display="inline">
		<path fill="#DCD533" d="M415.124,165.121c-97.189,0-117.488-48.633-183.92-48.633c-19.161,0-36.121,4.05-52.431,9.807
			c0.096,1.114,0.146,2.249,0.146,3.409c0,12.707-5.313,21.435-15.936,26.186c12.061,4.545,18.094,14.188,18.094,28.929
			c0,5.431-0.913,10.225-2.739,14.38s-4.29,7.646-7.388,10.476c-3.099,2.825-6.779,4.957-11.039,6.399
			c-4.261,1.439-8.771,2.16-13.528,2.16c-4.648,0-9.021-0.6-13.114-1.798c-4.096-1.198-7.693-3.081-10.79-5.644
			c-3.1-2.565-5.618-5.813-7.553-9.739c-1.938-3.927-3.017-8.549-3.237-13.861h11.952c0.221,3.652,0.996,6.78,2.324,9.379
			s3.042,4.731,5.146,6.392c2.101,1.659,4.454,2.848,7.055,3.568c2.599,0.719,5.338,1.079,8.217,1.079
			c3.208,0,6.196-0.501,8.964-1.499c2.766-1.001,5.172-2.472,7.221-4.415c2.047-1.945,3.652-4.331,4.814-7.163
			c1.162-2.833,1.743-6.08,1.743-9.748c0-7.218-1.854-12.854-5.562-16.908c-3.709-4.055-9.602-6.083-17.679-6.083h-2.324V151.17
			h2.324c7.304,0,12.642-1.9,16.019-5.703c3.211-3.618,4.877-8.527,5.033-14.691c-35.761,14.348-70.173,34.346-120.267,34.346
			c-78.12,0-102.725-39.585-102.725-39.585L-98.5,308.757l622.5-5.655C524,303.102,512.313,165.121,415.124,165.121z"/>
		<path fill="#DCD533" d="M176.511,116.614c-1.605-3.979-3.817-7.348-6.64-10.11s-6.254-4.917-10.292-6.463
			c-4.042-1.546-8.44-2.322-13.197-2.322c-4.539,0-8.744,0.693-12.616,2.075c-3.875,1.385-7.278,3.349-10.209,5.893
			c-2.933,2.547-5.312,5.701-7.138,9.462c-1.826,3.764-2.905,8.025-3.237,12.782h11.952c0.553-6.084,2.656-10.873,6.308-14.359
			c3.652-3.486,8.632-5.229,14.94-5.229c5.753,0,10.624,1.821,14.608,5.458c3.984,3.639,5.976,8.984,5.976,16.04
			c0,0.32-0.023,0.622-0.031,0.936c3.922-1.573,7.861-3.076,11.837-4.48C178.476,122.849,177.722,119.622,176.511,116.614z"/>
	</g>
	<rect x="115" y="74.126" display="inline" fill="none" width="73.5" height="19.5"/>
	<text transform="matrix(1 0 0 1 115 89.4563)" display="inline" fill="#DCD533" font-family="'Raleway-Bold'" font-size="21">NIVEL</text>
</g>
<g id="Capa_5" display="none">
	<g display="inline">
		<path fill="#E49548" d="M126.571,78.195c-1.138,0.401-2.273,0.808-3.407,1.221l3.407,4.29V78.195z"/>
		<path fill="#E49548" d="M430.104,126.987c-124.433,0-150.422-61.523-235.477-61.523c-19.805,0-37.773,3.338-54.949,8.456h1.446
			l4.032,11.277l3.99-11.277h3.044l-5.816,14.91h-2.436l-5.689-14.477c-0.757,0.231-1.515,0.46-2.27,0.697V88.83h-2.898V75.983
			c-1.207,0.394-2.411,0.795-3.611,1.205V88.83h-2.352l-6.73-8.389c-0.312,0.116-0.624,0.231-0.935,0.349v8.041h-2.898v-6.936
			c-47.317,18.225-92.092,45.093-158.193,45.093c-100.019,0-131.521-50.077-131.521-50.077L-227.5,308.696l797-7.154
			C569.5,301.542,554.537,126.987,430.104,126.987z M167.416,73.92h2.897v12.369h7.603v2.541h-10.5V73.92z M154.291,73.92h10.163
			v2.541h-7.266v3.591h6.278v2.352h-6.278v3.885h7.455v2.541h-10.353V73.92z M186.555,192.21h-15.105v25.398h-11.952V192.21h-50.298
			v-10.955l43.824-88.479h12.87l-44.079,88.479h37.682v-34.03h11.952v34.03h15.105V192.21z"/>
		<path fill="#E49548" d="M129.469,73.941h-2.898v4.254c0.965-0.34,1.93-0.677,2.898-1.007V73.941z"/>
		<path fill="#E49548" d="M119.452,79.275l0.935,1.166c0.924-0.345,1.85-0.688,2.777-1.025l-4.363-5.496h-2.247v7.974
			c0.965-0.372,1.931-0.741,2.898-1.105V79.275z"/>
		<path fill="#E49548" d="M135.979,73.92h-2.898v2.063c0.964-0.315,1.929-0.628,2.898-0.932V73.92z"/>
		<path fill="#E49548" d="M138.078,73.92l0.17,0.434c0.476-0.145,0.951-0.291,1.429-0.434H138.078z"/>
	</g>
</g>
<g id="Capa_6" display="none">
	<path display="inline" fill="#E44848" d="M342.553,20.959C257.285,20.959,237.285,5,179,5c-58.285,0-68,15.333-159.713,15.959
		C-49.25,21.427-70.838-0.853-70.838-0.853l-11.56,369.932l512.974-9C430.576,360.08,427.822,20.959,342.553,20.959z M167.416,73.92
		h2.897v12.369h7.603v2.541h-10.5V73.92z M154.291,73.92h10.163v2.541h-7.266v3.591h6.278v2.352h-6.278v3.885h7.455v2.541h-10.353
		V73.92z M141.123,73.92l4.032,11.277l3.99-11.277h3.044l-5.816,14.91h-2.436l-5.859-14.91H141.123z M133.081,73.92h2.898v14.91
		h-2.898V73.92z M116.554,73.92h2.247l7.77,9.786v-9.765h2.898V88.83h-2.352l-7.665-9.555v9.555h-2.898V73.92z M178.836,194.238
		c-1.054,5.377-3.682,10.173-7.886,14.388c-2.768,2.771-6.06,4.934-9.877,6.487c-3.817,1.551-8.383,2.329-13.695,2.329
		c-5.203,0-9.823-0.775-13.861-2.324c-4.042-1.551-7.333-3.598-9.877-6.142c-2.547-2.656-4.482-5.701-5.81-9.13
		c-1.328-3.429-2.158-7.247-2.49-11.454h11.952c0.773,5.976,2.739,10.541,5.893,13.695c3.154,3.153,7.885,4.73,14.193,4.73
		c6.084,0,10.956-1.826,14.608-5.478c1.549-1.552,2.766-3.266,3.652-5.146c0.885-1.881,1.52-3.872,1.908-5.976
		c0.387-2.102,0.636-4.259,0.748-6.475c0.108-2.212,0.166-4.37,0.166-6.474c0-3.652-0.25-7.192-0.748-10.624
		c-0.498-3.429-1.439-6.474-2.822-9.13c-1.385-2.656-3.377-4.814-5.975-6.475c-2.602-1.659-6.06-2.489-10.375-2.489
		c-5.203,0-9.462,1.053-12.782,3.153c-3.32,2.104-5.589,4.926-6.806,8.467h-10.79V98.088h59.759v10.624h-48.97v37.35
		c2.324-2.544,5.284-4.537,8.881-5.976c3.595-1.437,7.719-2.158,12.367-2.158c4.425,0,8.354,0.667,11.786,1.998
		c3.43,1.331,6.309,3.159,8.632,5.488c2.101,2.22,3.818,4.575,5.146,7.07c1.328,2.495,2.324,5.131,2.988,7.9
		c0.664,2.773,1.105,5.574,1.328,8.401c0.221,2.827,0.332,5.629,0.332,8.401C180.412,183.177,179.886,188.859,178.836,194.238z"/>
</g>
</svg>
