<?xml version="1.0" encoding="utf-8"?>
<!-- Generator: Adobe Illustrator 17.0.0, SVG Export Plug-In . SVG Version: 6.00 Build 0)  -->
<!DOCTYPE svg PUBLIC "-//W3C//DTD SVG 1.1//EN" "http://www.w3.org/Graphics/SVG/1.1/DTD/svg11.dtd">
<svg version="1.1" id="Capa_1" xmlns="http://www.w3.org/2000/svg" xmlns:xlink="http://www.w3.org/1999/xlink" x="0px" y="0px"
	 width="1000px" height="1000px" viewBox="0 0 1000 1000" enable-background="new 0 0 1000 1000" xml:space="preserve">
<polygon display="none" fill-rule="evenodd" clip-rule="evenodd" fill="#FFFFFF" points="423.5,752 583.1,752 370.3,539.2 
	849.1,539.2 849.1,432.8 370.3,432.8 583.1,220 423.5,220 157.5,486 "/>
<path fill-rule="evenodd" clip-rule="evenodd" fill="#1D2641" d="M448.5,654.5c0-105.011,78.633-191.49,180.198-204.216
	c0.039-1.082,0.052-1.784,0.052-1.784c6.664-9.63,25.75-25.75,25.75-51.5s-25.75-51.5-25.75-64.375
	C628.75,229.625,576.295,191,500,191c-73.012,0-128.75,38.625-128.75,141.625c0,12.875-25.75,38.625-25.75,64.375
	s18.419,42.699,25.75,51.5c0,0,0,25.75,12.875,64.375c0,12.875,25.75,25.75,38.625,38.625c0,12.875,0,25.75-12.875,51.5
	L268.25,628.75C216.75,641.625,191,731.75,191,809h327.558C475.684,771.256,448.5,716.109,448.5,654.5z M654.5,500
	C569.177,500,500,569.177,500,654.5S569.177,809,654.5,809c85.323,0,154.5-69.177,154.5-154.5S739.823,500,654.5,500z M757.5,680.25
	h-77.25v77.25h-51.5v-77.25H551.5v-51.5h77.25V551.5h51.5v77.25h77.25V680.25z"/>
</svg>
