<?xml version="1.0" encoding="utf-8"?>
<!-- Generator: Adobe Illustrator 17.0.0, SVG Export Plug-In . SVG Version: 6.00 Build 0)  -->
<!DOCTYPE svg PUBLIC "-//W3C//DTD SVG 1.1//EN" "http://www.w3.org/Graphics/SVG/1.1/DTD/svg11.dtd">
<svg version="1.1" id="Capa_1" xmlns="http://www.w3.org/2000/svg" xmlns:xlink="http://www.w3.org/1999/xlink" x="0px" y="0px"
	 width="1000px" height="1000px" viewBox="0 0 1000 1000" enable-background="new 0 0 1000 1000" xml:space="preserve">
<g id="Bank">
	<g>
		<path fill-rule="evenodd" clip-rule="evenodd" fill="#5D6E79" d="M500,260L360,380h280L500,260z M500,312.696L531.874,340h-63.75
			L500,312.696z M740,700h-20V460h40c17.128,0,32.364-10.898,37.872-27.11c5.506-16.21,0.096-34.14-13.478-44.608L538.3,189.766
			C526.368,183.242,513.184,180,500,180s-26.368,3.242-38.3,9.766L215.606,388.282c-13.574,10.468-18.984,28.398-13.478,44.608
			C207.636,449.102,222.872,460,240,460h40v240h-20c-33.144,0-60,26.874-60,60c0,33.124,26.856,60,60,60h480
			c33.144,0,60-26.876,60-60C800,726.874,773.144,700,740,700z M240.722,419.414l242.814-195.86C488.672,221.21,494.316,220,500,220
			s11.328,1.21,16.464,3.554L760,420L240.722,419.414z M680,460v240h-40V460H680z M600,460v240h-40V460H600z M520,460v240h-40V460
			H520z M440,460v240h-40V460H440z M360,460v240h-40V460H360z M740,780H260c-11.036,0-20-8.984-20-20c0-11.016,8.964-20,20-20h480
			c11.036,0,20,8.984,20,20C760,771.016,751.036,780,740,780z"/>
	</g>
</g>
</svg>
