<?xml version="1.0" encoding="utf-8"?>
<!-- Generator: Adobe Illustrator 17.0.0, SVG Export Plug-In . SVG Version: 6.00 Build 0)  -->
<!DOCTYPE svg PUBLIC "-//W3C//DTD SVG 1.1//EN" "http://www.w3.org/Graphics/SVG/1.1/DTD/svg11.dtd">
<svg version="1.1" id="Capa_1" xmlns="http://www.w3.org/2000/svg" xmlns:xlink="http://www.w3.org/1999/xlink" x="0px" y="0px"
	 width="1000px" height="1000px" viewBox="0 0 1000 1000" enable-background="new 0 0 1000 1000" xml:space="preserve">
<g id="icon_110">
	<path fill-rule="evenodd" clip-rule="evenodd" fill="#323232" d="M531.099,468.909h-62.19v62.19h62.19V468.909z M655.494,593.297
		h-62.19v62.198h62.19V593.297z M531.099,344.506h-62.19v62.198h62.19V344.506z M655.494,717.692h-62.19v62.198h62.19V717.692z
		 M655.494,468.909h-62.19v62.19h62.19V468.909z M344.506,126.814h-62.198v62.198h62.198V126.814z M779.89,344.506h-62.198v62.198
		h62.198V344.506z M655.494,344.506h-62.19v62.198h62.19V344.506z M779.89,468.909h-62.198v62.19h62.198V468.909z M779.89,593.297
		h-62.198v62.198h62.198V593.297z M282.308,593.297H220.11v62.198h62.198V593.297z M282.308,468.909H220.11v62.19h62.198V468.909z
		 M282.308,717.692H220.11v62.198h62.198V717.692z M406.703,717.692h-62.198v62.198h62.198V717.692z M748.791,126.814v93.297
		H624.395v-93.297H375.605v93.297H251.209v-93.297H126.814v746.372h746.372V126.814H748.791z M842.087,842.087H157.913V282.308
		h684.174V842.087z M406.703,468.909h-62.198v62.19h62.198V468.909z M406.703,593.297h-62.198v62.198h62.198V593.297z
		 M531.099,717.692h-62.19v62.198h62.19V717.692z M406.703,344.506h-62.198v62.198h62.198V344.506z M531.099,593.297h-62.19v62.198
		h62.19V593.297z M717.692,126.814h-62.198v62.198h62.198V126.814z"/>
</g>
</svg>
