<?xml version="1.0" encoding="utf-8"?>
<!-- Generator: Adobe Illustrator 17.0.0, SVG Export Plug-In . SVG Version: 6.00 Build 0)  -->
<!DOCTYPE svg PUBLIC "-//W3C//DTD SVG 1.1//EN" "http://www.w3.org/Graphics/SVG/1.1/DTD/svg11.dtd">
<svg version="1.1" id="Capa_1" xmlns="http://www.w3.org/2000/svg" xmlns:xlink="http://www.w3.org/1999/xlink" x="0px" y="0px"
	 width="1000px" height="1000px" viewBox="0 0 1000 1000" enable-background="new 0 0 1000 1000" xml:space="preserve">
<g id="icon_109">
	<path fill-rule="evenodd" clip-rule="evenodd" fill="#1B1A1B" d="M534.752,326.24h-69.504v69.504h69.504V326.24z M673.76,604.256
		h-69.504v69.504h69.504V604.256z M673.76,465.257h-69.504v69.495h69.504V465.257z M534.752,465.257h-69.504v69.495h69.504V465.257z
		 M812.767,465.257h-69.504v69.495h69.504V465.257z M534.752,604.256h-69.504v69.504h69.504V604.256z M812.767,326.24h-69.504
		v69.504h69.504V326.24z M812.767,604.256h-69.504v69.504h69.504V604.256z M673.76,326.24h-69.504v69.504h69.504V326.24z
		 M256.745,743.264h-69.513v69.504h69.513V743.264z M256.745,604.256h-69.513v69.504h69.513V604.256z M395.753,743.264H326.24
		v69.504h69.513V743.264z M534.752,743.264h-69.504v69.504h69.504V743.264z M82.977,82.977v834.047h834.047V82.977H82.977z
		 M882.271,882.271H117.729V256.736h764.543V882.271z M256.745,465.257h-69.513v69.495h69.513V465.257z M395.753,326.24H326.24
		v69.504h69.513V326.24z M395.753,465.257H326.24v69.495h69.513V465.257z M395.753,604.256H326.24v69.504h69.513V604.256z
		 M673.76,743.264h-69.504v69.504h69.504V743.264z"/>
</g>
</svg>
