<?xml version="1.0" encoding="utf-8"?>
<!-- Generator: Adobe Illustrator 17.0.0, SVG Export Plug-In . SVG Version: 6.00 Build 0)  -->
<!DOCTYPE svg PUBLIC "-//W3C//DTD SVG 1.1//EN" "http://www.w3.org/Graphics/SVG/1.1/DTD/svg11.dtd">
<svg version="1.1" id="Capa_1" xmlns="http://www.w3.org/2000/svg" xmlns:xlink="http://www.w3.org/1999/xlink" x="0px" y="0px"
	 width="200px" height="49.59px" viewBox="0 0 200 49.59" enable-background="new 0 0 200 49.59" xml:space="preserve">
<g>
	<path fill="#003C79" d="M22.273,34.368h-3.505l-4.206-7.046c-0.386-0.654-0.76-1.212-1.122-1.674
		c-0.362-0.462-0.733-0.838-1.113-1.131c-0.38-0.292-0.789-0.505-1.227-0.64c-0.438-0.134-0.932-0.201-1.481-0.201H7.201v10.691
		H4.257V9.236h7.501c1.098,0,2.112,0.137,3.041,0.412c0.929,0.275,1.735,0.692,2.419,1.253c0.684,0.561,1.218,1.259,1.604,2.094
		c0.386,0.835,0.578,1.814,0.578,2.935c0,0.876-0.131,1.68-0.394,2.41c-0.263,0.731-0.637,1.382-1.122,1.954
		c-0.485,0.573-1.069,1.06-1.753,1.464c-0.683,0.403-1.452,0.716-2.304,0.937v0.07c0.421,0.187,0.786,0.4,1.095,0.64
		c0.309,0.24,0.604,0.523,0.885,0.85c0.28,0.327,0.558,0.698,0.833,1.113c0.274,0.415,0.581,0.897,0.92,1.446L22.273,34.368z
		 M7.201,11.899v9.113h3.996c0.736,0,1.417-0.111,2.042-0.333c0.625-0.222,1.165-0.54,1.621-0.955
		c0.456-0.415,0.812-0.923,1.069-1.525c0.257-0.601,0.386-1.276,0.386-2.024c0-1.343-0.435-2.392-1.306-3.146
		c-0.87-0.754-2.129-1.131-3.777-1.131H7.201z"/>
	<path fill="#003C79" d="M39.045,34.368h-13.32V9.236h12.759v2.664H28.67v8.36h9.078v2.646H28.67v8.798h10.375V34.368z"/>
	<path fill="#003C79" d="M64.142,34.368h-3.61L47.598,14.336c-0.327-0.502-0.596-1.028-0.806-1.577h-0.105
		c0.093,0.537,0.14,1.689,0.14,3.453v18.157h-2.944V9.236h3.821l12.583,19.716c0.526,0.818,0.865,1.379,1.016,1.682h0.07
		c-0.117-0.724-0.175-1.957-0.175-3.698V9.236h2.944V34.368z"/>
	<path fill="#003C79" d="M85.594,11.899h-7.256v22.468h-2.944V11.899h-7.238V9.236h17.438V11.899z"/>
	<path fill="#003C79" d="M118.823,34.368h-3.26l-2.664-7.046h-10.656l-2.506,7.046H96.46l9.639-25.132h3.05L118.823,34.368z
		 M111.935,24.676l-3.944-10.708c-0.128-0.351-0.257-0.911-0.385-1.682h-0.07c-0.117,0.713-0.251,1.274-0.404,1.682l-3.908,10.708
		H111.935z"/>
	<path fill="#003C79" d="M149.458,33.316c-1.858,0.981-4.171,1.472-6.94,1.472c-3.575,0-6.438-1.151-8.588-3.453
		c-2.15-2.302-3.225-5.322-3.225-9.061c0-4.019,1.209-7.267,3.628-9.744c2.418-2.477,5.485-3.715,9.201-3.715
		c2.383,0,4.358,0.345,5.924,1.034v3.137c-1.799-1.005-3.786-1.507-5.959-1.507c-2.886,0-5.225,0.964-7.019,2.892
		c-1.794,1.928-2.69,4.504-2.69,7.729c0,3.061,0.838,5.5,2.515,7.317c1.676,1.817,3.876,2.725,6.599,2.725
		c2.524,0,4.709-0.561,6.555-1.682V33.316z"/>
	<path fill="#003C79" d="M174.029,34.368h-3.26l-2.664-7.046h-10.656l-2.506,7.046h-3.278l9.639-25.132h3.049L174.029,34.368z
		 M167.141,24.676l-3.944-10.708c-0.129-0.351-0.257-0.911-0.386-1.682h-0.07c-0.117,0.713-0.251,1.274-0.403,1.682l-3.908,10.708
		H167.141z"/>
	<path fill="#003C79" d="M195.743,34.368h-3.505l-4.206-7.046c-0.386-0.654-0.759-1.212-1.122-1.674s-0.733-0.838-1.113-1.131
		c-0.38-0.292-0.789-0.505-1.227-0.64c-0.438-0.134-0.932-0.201-1.481-0.201h-2.419v10.691h-2.944V9.236h7.501
		c1.098,0,2.112,0.137,3.041,0.412c0.929,0.275,1.735,0.692,2.419,1.253c0.684,0.561,1.218,1.259,1.603,2.094
		c0.386,0.835,0.579,1.814,0.579,2.935c0,0.876-0.131,1.68-0.394,2.41c-0.263,0.731-0.637,1.382-1.122,1.954
		c-0.485,0.573-1.069,1.06-1.753,1.464c-0.683,0.403-1.452,0.716-2.304,0.937v0.07c0.421,0.187,0.786,0.4,1.095,0.64
		c0.309,0.24,0.604,0.523,0.885,0.85c0.28,0.327,0.558,0.698,0.833,1.113c0.274,0.415,0.581,0.897,0.92,1.446L195.743,34.368z
		 M180.671,11.899v9.113h3.996c0.736,0,1.417-0.111,2.042-0.333c0.625-0.222,1.165-0.54,1.621-0.955
		c0.455-0.415,0.812-0.923,1.069-1.525c0.257-0.601,0.386-1.276,0.386-2.024c0-1.343-0.436-2.392-1.306-3.146
		c-0.87-0.754-2.129-1.131-3.777-1.131H180.671z"/>
</g>
</svg>
