<?xml version="1.0" encoding="utf-8"?>
<!-- Generator: Adobe Illustrator 17.0.0, SVG Export Plug-In . SVG Version: 6.00 Build 0)  -->
<!DOCTYPE svg PUBLIC "-//W3C//DTD SVG 1.1//EN" "http://www.w3.org/Graphics/SVG/1.1/DTD/svg11.dtd">
<svg version="1.1" id="Capa_1" xmlns="http://www.w3.org/2000/svg" xmlns:xlink="http://www.w3.org/1999/xlink" x="0px" y="0px"
	 width="200px" height="49.59px" viewBox="0 0 200 49.59" enable-background="new 0 0 200 49.59" xml:space="preserve">
<path fill="#003C79" d="M6.224,15.348c0,0,8.537-2.134,13.462,2.791c6.259,6.259,4.166,13.359,9.029,18.222
	c2.298,2.298,4.597,3.119,6.074,3.119c0,0-9.111,3.858-16.417-3.447C13.283,30.944,16.115,23.023,6.224,15.348z"/>
<path fill="#EECC31" d="M32.511,33.83c0-5.879,5.217-8.819,5.787-10.158c0,0-8.834,0.339-8.834,4.494
	C29.464,32.076,32.511,33.83,32.511,33.83z"/>
<path fill="#EECC31" d="M28.161,26.204c0,0,2.247-3.971,9.665-3.971c15.945,0,18.756-9.06,18.838-13.082
	c0,0-3.036,3.656-18.644,3.003C29.148,11.783,26.006,24.049,28.161,26.204z"/>
<g>
	<path fill="#003C79" d="M69.209,41.502c-7.981,0-12.071-4.589-12.271-13.667c0-9.028,4.041-13.567,12.171-13.717
		c6.385,0,10.176,2.843,11.323,8.58H73.2c-0.798-1.796-2.195-2.744-4.29-2.744c-3.492,0-5.237,2.644-5.237,7.881
		c0,5.238,1.846,7.881,5.537,7.832c1.546,0,2.893-0.648,3.991-1.896c0.648-0.648,1.396-0.948,2.245-0.948h4.988
		C79.236,38.21,75.345,41.651,69.209,41.502z"/>
	<path fill="#003C79" d="M90.76,21.4h-6.634c0.798-4.888,4.24-7.283,10.325-7.283c7.283,0,10.974,2.395,11.124,7.283v8.979
		c0,7.282-4.39,10.524-11.522,11.023c-6.335,0.499-10.724-2.444-10.724-8.28c0.149-6.335,4.738-8.031,11.422-8.68
		c2.843-0.349,4.29-1.197,4.29-2.644c-0.15-1.497-1.546-2.245-4.29-2.245C92.406,19.554,91.109,20.153,90.76,21.4z M99.14,30.079
		v-2.444c-1.546,0.648-3.342,1.197-5.287,1.597c-2.644,0.499-3.991,1.745-3.991,3.69c0.15,2.096,1.247,3.093,3.342,3.093
		C96.895,36.015,99.14,33.82,99.14,30.079z"/>
	<path fill="#003C79" d="M108.768,27.286c0.199-8.529,4.738-12.77,13.567-12.77h0.947V21.4h-2.244c-3.691,0-5.537,1.945-5.537,5.786
		v13.717h-6.733V27.286z"/>
	<path fill="#EECC31" d="M133.909,21.051h-0.898v19.853h-6.634V13.818c-0.25-5.038,2.693-7.033,7.632-7.033
		c1.146,0,2.194,0.05,3.192,0.2v5.487h-1.746c-1.546,0-2.395,0.648-2.544,1.945v1.746h4.29v1.546
		C137.201,19.504,135.704,21.051,133.909,21.051z"/>
	<path fill="#EECC31" d="M147.128,10.227v30.677h-6.634V6.984h3.441C145.682,6.984,147.128,8.48,147.128,10.227z"/>
	<path fill="#EECC31" d="M162.642,41.502c-7.98-0.249-11.972-4.889-11.972-13.867s4.041-13.468,12.071-13.518
		c8.38,0,12.321,5.138,11.822,15.463h-17.06c0.25,4.041,1.995,6.086,5.237,6.086c1.547,0,2.993-0.648,4.29-1.896
		c0.599-0.648,1.347-0.948,2.245-0.948h4.888C172.718,38.409,169.126,41.502,162.642,41.502z M157.604,24.842h9.927
		c-0.399-3.492-2.045-5.288-4.889-5.288C159.799,19.554,158.103,21.35,157.604,24.842z"/>
	<path fill="#EECC31" d="M184.989,19.255h-0.698V33.87c0,1.098,0.648,1.696,1.945,1.696h2.045v5.038
		c-2.145,0.199-4.489,0.199-6.983-0.051c-2.493-0.249-3.69-1.795-3.641-4.738V6.984h3.441c1.746,0,3.192,1.596,3.192,3.342v4.19
		h3.99v1.447C188.281,17.858,186.835,19.255,184.989,19.255z"/>
</g>
</svg>
