<?xml version="1.0" encoding="utf-8"?>
<!-- Generator: Adobe Illustrator 17.0.0, SVG Export Plug-In . SVG Version: 6.00 Build 0)  -->
<!DOCTYPE svg PUBLIC "-//W3C//DTD SVG 1.1//EN" "http://www.w3.org/Graphics/SVG/1.1/DTD/svg11.dtd">
<svg version="1.1" id="Capa_1" xmlns="http://www.w3.org/2000/svg" xmlns:xlink="http://www.w3.org/1999/xlink" x="0px" y="0px"
	 width="1000px" height="1000px" viewBox="0 0 1000 1000" enable-background="new 0 0 1000 1000" xml:space="preserve">
<path fill="#FFFFFF" d="M116.14,666.99h30.454c9.515,42.083,47.182,73.61,92.1,73.61s82.585-31.529,92.1-73.61h312.466
	c9.515,42.083,47.183,73.61,92.103,73.61s82.586-31.529,92.103-73.61h57.674c49.902,0,90.503-40.598,90.503-90.502v-25.917
	c0-49.902-40.601-90.502-90.503-90.502H743.847l-50.22-90.867c-37.207-67.34-108.121-109.174-185.071-109.174H131.514
	c-58.38,0-105.876,47.513-105.876,105.917v210.541C25.638,626.392,66.236,666.99,116.14,666.99z M238.694,698.934
	c-29.102,0-52.778-23.676-52.778-52.778s23.676-52.779,52.778-52.779s52.778,23.678,52.778,52.779
	C291.471,675.258,267.796,698.934,238.694,698.934z M735.363,698.934c-29.102,0-52.779-23.676-52.779-52.778
	s23.678-52.779,52.779-52.779c29.102,0,52.779,23.678,52.779,52.779C788.142,675.258,764.465,698.934,735.363,698.934z
	 M885.139,501.739c21.439,0,39.654,13.905,46.206,33.155h-60.343v41.667h62.968c-0.039,26.894-21.928,48.763-48.833,48.763h-57.674
	c-9.515-42.083-47.183-73.613-92.103-73.613s-82.586,31.53-92.103,73.613H330.795c-9.515-42.083-47.182-73.613-92.1-73.613
	s-82.585,31.53-92.1,73.613h-30.454c-26.926,0-48.834-21.908-48.834-48.834V457.268h627.385l24.58,44.473h165.868V501.739z
	 M363.605,301.698L254.904,415.6H147.917l108.702-113.902H363.605z M445.5,301.698V415.6H312.501l108.7-113.902H445.5z
	 M671.66,415.6H555.532l66.118-70.741c14.046,12.541,26.115,27.504,35.506,44.498L671.66,415.6z M586.959,320.953L498.498,415.6
	h-11.332V301.698h21.389C536.356,301.698,563.145,308.548,586.959,320.953z M131.514,301.698h67.507L90.32,415.6H67.305v-49.652
	C67.305,330.521,96.11,301.698,131.514,301.698z"/>
</svg>
