<?xml version="1.0" encoding="utf-8"?>
<!-- Generator: Adobe Illustrator 17.0.0, SVG Export Plug-In . SVG Version: 6.00 Build 0)  -->
<!DOCTYPE svg PUBLIC "-//W3C//DTD SVG 1.1//EN" "http://www.w3.org/Graphics/SVG/1.1/DTD/svg11.dtd">
<svg version="1.1" id="Capa_1" xmlns="http://www.w3.org/2000/svg" xmlns:xlink="http://www.w3.org/1999/xlink" x="0px" y="0px"
	 width="1000px" height="1000px" viewBox="0 0 1000 1000" enable-background="new 0 0 1000 1000" xml:space="preserve">
<path fill="#323232" d="M216.514,623.479h22.504c7.031,31.097,34.865,54.394,68.057,54.394s61.026-23.298,68.057-54.394h230.896
	c7.031,31.097,34.866,54.394,68.059,54.394c33.193,0,61.027-23.298,68.059-54.394h42.618c36.875,0,66.877-30,66.877-66.876v-19.151
	c0-36.875-30.002-66.876-66.877-66.876H680.357l-37.11-67.146c-27.494-49.761-79.896-80.674-136.758-80.674H227.875
	c-43.14,0-78.237,35.11-78.237,78.267v155.579C149.638,593.479,179.638,623.479,216.514,623.479z M307.075,647.084
	c-21.505,0-39-17.495-39-39c0-21.505,17.495-39.001,39-39.001c21.505,0,39,17.497,39,39.001
	C346.075,629.589,328.58,647.084,307.075,647.084z M674.088,647.084c-21.505,0-39.001-17.495-39.001-39
	c0-21.505,17.497-39.001,39.001-39.001c21.505,0,39.001,17.497,39.001,39.001C713.089,629.589,695.593,647.084,674.088,647.084z
	 M784.765,501.367c15.842,0,29.302,10.275,34.144,24.5h-44.59v30.79h46.53c-0.029,19.873-16.204,36.033-36.085,36.033h-42.618
	c-7.031-31.097-34.866-54.396-68.059-54.396c-33.193,0-61.027,23.299-68.059,54.396H375.133
	c-7.031-31.097-34.865-54.396-68.057-54.396s-61.026,23.299-68.057,54.396h-22.504c-19.897,0-36.086-16.189-36.086-36.086v-88.099
	h463.605l18.163,32.863H784.765z M399.378,353.547l-80.324,84.168h-79.058l80.325-84.168H399.378z M459.894,353.547v84.168h-98.279
	l80.324-84.168H459.894z M627.015,437.715h-85.813l48.858-52.274c10.379,9.267,19.298,20.324,26.237,32.882L627.015,437.715z
	 M564.425,367.776l-65.368,69.939h-8.374v-84.168h15.805C527.032,353.547,546.828,358.609,564.425,367.776z M227.875,353.547h49.884
	l-80.324,84.168h-17.007v-36.69C180.428,374.846,201.713,353.547,227.875,353.547z"/>
</svg>
