<?xml version="1.0" encoding="utf-8"?>
<!-- Generator: Adobe Illustrator 17.0.0, SVG Export Plug-In . SVG Version: 6.00 Build 0)  -->
<!DOCTYPE svg PUBLIC "-//W3C//DTD SVG 1.1//EN" "http://www.w3.org/Graphics/SVG/1.1/DTD/svg11.dtd">
<svg version="1.1" xmlns="http://www.w3.org/2000/svg" xmlns:xlink="http://www.w3.org/1999/xlink" x="0px" y="0px" width="200px"
	 height="200px" viewBox="0 0 200 200" enable-background="new 0 0 200 200" xml:space="preserve">
<g id="Capa_1" display="none">
	<path display="inline" fill="#FFFFFF" stroke="#010002" stroke-miterlimit="10" d="M175.71,103.183l-66.156-66.156
		c-2.439-2.439-5.68-3.781-9.127-3.781c-3.45,0-6.691,1.342-9.127,3.781l-66.156,66.156c-2.206,2.206-2.861,5.494-1.666,8.378
		c1.194,2.883,3.981,4.745,7.101,4.745h11.778c0.908,0,1.648,0.74,1.648,1.648v36.462c0,7.119,5.791,12.91,12.907,12.91h30.294
		h26.44h30.291c7.119,0,12.91-5.792,12.91-12.91v-36.462c0-0.908,0.74-1.648,1.648-1.648h11.778c3.12,0,5.907-1.862,7.101-4.745
		C178.57,108.677,177.915,105.389,175.71,103.183z M90.226,161.287v-32.615h20.401v32.615H90.226z M171.796,109.249
		c-0.127,0.306-0.528,1.017-1.522,1.017h-11.778c-4.241,0-7.688,3.449-7.688,7.688v36.462c0,3.789-3.082,6.871-6.871,6.871h-27.271
		v-35.635c0-1.667-1.351-3.02-3.02-3.02h-26.44c-1.669,0-3.02,1.352-3.02,3.02v35.635H56.913c-3.786,0-6.868-3.082-6.868-6.871
		v-36.462c0-4.239-3.447-7.688-7.688-7.688H30.579c-0.994,0-1.395-0.711-1.522-1.017c-0.127-0.305-0.345-1.093,0.357-1.796
		L95.57,41.297c1.298-1.298,3.023-2.011,4.857-2.011s3.559,0.714,4.857,2.011l66.156,66.156
		C172.141,108.156,171.923,108.944,171.796,109.249z"/>
</g>
<g id="Capa_2" display="none">
	
		<image display="inline" overflow="visible" width="512" height="512" xlink:href="31-512.png"  transform="matrix(0.3906 0 0 0.3906 0 0)">
	</image>
</g>
<g id="Capa_3" display="none">
	
		<line display="inline" fill="none" stroke="#FFFFFF" stroke-width="5" stroke-linecap="round" stroke-miterlimit="10" x1="32.923" y1="166.19" x2="84.36" y2="114.753"/>
	<path display="inline" fill="none" stroke="#FFFFFF" stroke-width="5" stroke-linecap="round" stroke-miterlimit="10" d="
		M160.336,60.389c-1.469,1.496-3.52,1.864-4.58,0.822l-18.776-18.44c-1.061-1.042-0.729-3.099,0.74-4.594l0,0
		c1.469-1.496,3.52-1.864,4.58-0.822l18.776,18.44C162.136,56.836,161.805,58.893,160.336,60.389L160.336,60.389z"/>
	<path display="inline" fill="none" stroke="#FFFFFF" stroke-width="5" stroke-linecap="round" stroke-miterlimit="10" d="
		M21.783,178.751h17.221c0,0,7.749-5.56,8.972-8.374c0.616-1.417,0-6.18,0-6.18s5.482,0.388,7.775,0
		c1.622-0.275,3.788-5.383,3.788-5.383s-1.994-3.19,0-4.984c1.994-1.794,6.18-6.38,6.18-6.38s4.586-1.994,7.177-1.595
		s-1.994-3.589,0-6.18c1.994-2.592,7.975-9.37,13.956-8.374l4.984-4.785c0,0,2.882,3.565,3.987,2.991
		c5.344-2.777,19.937-20.535,19.937-20.535L91.039,84.249c0,0-6.529,3.578-6.679,5.782c-0.166,2.437,5.084,5.782,0,9.769
		c-5.084,3.987-5.483-0.797-7.875-0.997c-2.392-0.199-5.782,4.586-5.782,4.586s-0.399,3.389,2.392,4.586l-4.785,4.386
		c0,0,1.595,4.586,0,6.18c-1.595,1.595-6.779,7.975-7.975,7.975s-3.589-2.193-4.984-0.997c-1.396,1.196-10.168,9.57-10.168,9.57
		s0.797,5.981-3.389,9.171c-4.187,3.19-7.576,2.791-7.576,2.791l-4.785,4.386l1.196,5.383c0,0-3.589-1.595-5.184-0.797
		c-1.595,0.797-3.788,3.389-3.788,3.389L21.783,178.751z"/>
	<path display="inline" fill="none" stroke="#FFFFFF" stroke-width="5" stroke-linecap="round" stroke-miterlimit="10" d="
		M91.039,84.249c0,0-5.782-4.586-5.582-8.174c0.199-3.589,12.76-22.928,18.94-30.703c6.18-7.775,20.735-25.32,25.918-25.121
		s20.709,8.547,29.507,17.345c11.191,11.191,20.136,25.719,18.741,30.304c-1.396,4.586-16.348,21.133-23.526,26.915
		c-7.177,5.782-27.912,18.342-31.7,18.741c-3.788,0.399-7.576-4.586-7.576-4.586"/>
</g>
<g id="Capa_4" display="none">
	<path display="inline" fill-rule="evenodd" clip-rule="evenodd" fill="#FFFFFF" d="M23.026,93.339h53.286V40.053H23.026V93.339z
		 M29.687,46.714h39.965v39.965H29.687V46.714z M23.026,159.947h53.286v-53.286H23.026V159.947z M29.687,113.322h39.965v39.965
		H29.687V113.322z M89.634,80.018h93.251v-6.661H89.634V80.018z M89.634,53.375v6.661h93.251v-6.661H89.634z M89.634,126.643h93.251
		v-6.661H89.634V126.643z M89.634,146.625h93.251v-6.661H89.634V146.625z"/>
</g>
<g id="Capa_5" display="none">
	<g id="icon_113" display="inline">
		<path fill-rule="evenodd" clip-rule="evenodd" fill="#FFFFFF" d="M140.94,33.246h-11.126v11.126h11.126V33.246z M74.186,33.246
			H63.06v11.126h11.126V33.246z M146.502,33.246v16.688h-22.251V33.246H79.749v16.688H57.498V33.246H35.246v133.507h133.507V33.246
			H146.502z M163.191,161.191H40.811V61.06h122.38V161.191z M99.22,138.94h5.561v-25.033h25.033v-5.563h-25.033V83.312H99.22v25.033
			H74.186v5.563H99.22V138.94z"/>
	</g>
</g>
<g id="Capa_6" display="none">
	<g id="icon_199" display="inline">
		<path fill-rule="evenodd" clip-rule="evenodd" fill="#FFFFFF" d="M24,40.24v115.52h152V40.24H24z M163.84,46.32L100,110.16
			L36.16,46.32H163.84z M169.92,149.68H30.08V49.36L100,119.28l69.92-69.92V149.68z"/>
	</g>
</g>
<g id="Capa_7" display="none">
	<g id="icon_273" display="inline">
		<path fill-rule="evenodd" clip-rule="evenodd" fill="#FFFFFF" d="M98.9,30.689c-39.267,0-71.1,31.833-71.1,71.1
			s31.833,71.1,71.1,71.1s71.1-31.833,71.1-71.1S138.167,30.689,98.9,30.689z M33.269,101.789c0-36.188,29.443-65.631,65.631-65.631
			s65.631,29.443,65.631,65.631c0,15.892-5.681,30.481-15.115,41.85c-2.118-4.209-4.839-7.285-8.191-8.121l-25.068-4.559
			c-2.278-4.559-2.27-6.54-2.278-9.117c2.278-2.278,6.837-4.556,6.837-6.837c2.281-6.834,2.281-11.395,2.281-11.395
			c1.178-1.704,4.556-4.556,4.556-9.112c0-4.561-4.556-9.117-4.556-11.395c0-18.232-9.285-25.068-22.79-25.068
			c-12.921,0-22.789,6.837-22.789,25.068c0,2.278-4.557,6.834-4.557,11.395c0,4.556,3.261,7.558,4.557,9.112
			c0,0,0,4.561,2.279,11.395c0,2.281,4.559,4.559,6.837,6.837c0,2.281,0,4.559-2.278,9.117l-25.068,4.559
			c-3.852,0.961-6.882,4.871-9.105,10.078C39.637,133.968,33.269,118.61,33.269,101.789z"/>
	</g>
</g>
<g id="Capa_8" display="none">
	<g id="icon_190" display="inline">
		<path fill-rule="evenodd" clip-rule="evenodd" fill="#872F86" d="M99.914,42.667c-19.789,0-35.833,16.044-35.833,35.833
			s16.044,35.833,35.833,35.833c19.789,0,35.833-16.044,35.833-35.833S119.703,42.667,99.914,42.667z M99.914,107.167
			c-15.831,0-28.667-12.835-28.667-28.667s12.836-28.667,28.667-28.667s28.667,12.836,28.667,28.667S115.745,107.167,99.914,107.167
			z M99.914,14c-35.833,0-64.5,28.667-64.5,64.5c0,12.381,3.709,21.969,10.11,31.68h0.004l47.591,72.209v0.01
			c1.435,2.166,3.944,3.601,6.792,3.601h0.004c2.859,0,5.371-1.442,6.799-3.611l47.591-72.209c6.4-9.71,10.11-19.299,10.11-31.68
			C164.414,42.667,135.747,14,99.914,14z M148.32,106.236l-47.591,72.209c-0.046,0.07-0.283,0.388-0.815,0.388
			c-0.364,0-0.626-0.157-0.77-0.325l-47.633-72.272c-6.26-9.49-8.93-17.787-8.93-27.736c0-31.613,25.72-57.333,57.333-57.333
			c31.613,0,57.333,25.72,57.333,57.333C157.247,88.449,154.577,96.742,148.32,106.236z"/>
	</g>
</g>
<g id="Capa_9" display="none">
	<g id="icon_112" display="inline">
		<path fill-rule="evenodd" clip-rule="evenodd" fill="#FFFFFF" d="M72.707,34.499H61.792v10.917h10.915V34.499z M138.208,34.499
			h-10.917v10.917h10.917V34.499z M143.666,34.499v16.375h-21.834V34.499H78.166v16.375H56.332V34.499H34.5v131.001h131V34.499
			H143.666z M160.041,160.042H39.957V61.791h120.084V160.042z M134.029,87.634l-4.009-4.009l-40.938,40.938l-19.104-19.104
			l-4.179,4.009l23.198,23.198L134.029,87.634z"/>
	</g>
</g>
<g id="Capa_10" display="none">
	<g id="icon_057" display="inline">
		<path fill-rule="evenodd" clip-rule="evenodd" fill="#FFFFFF" d="M44.501,44.5v5.047h110.999V44.5H44.501z M102.523,145.409
			V64.683h-5.045v80.726l-26.488-26.488l-3.784,3.784L100,155.5l32.795-32.795l-3.784-3.784L102.523,145.409z"/>
	</g>
</g>
<g id="Capa_11">
	
		<line fill="none" stroke="#FFFFFF" stroke-width="3" stroke-linecap="round" stroke-miterlimit="10" x1="74.229" y1="115.286" x2="74.229" y2="81.344"/>
	
		<line fill="none" stroke="#FFFFFF" stroke-width="3" stroke-linecap="round" stroke-miterlimit="10" x1="117.533" y1="115.286" x2="117.533" y2="81.344"/>
	<path fill="none" stroke="#FFFFFF" stroke-width="3" stroke-linecap="round" stroke-miterlimit="10" d="M74.229,70.811
		c0,0,10.533-4.682,21.652-4.682c12.582,0,21.652,4.682,21.652,4.682"/>
	<path fill="none" stroke="#FFFFFF" stroke-width="3" stroke-linecap="round" stroke-miterlimit="10" d="M74.229,125.234
		c0,0,0,29.772,3.511,32.186c5.807,3.992,32.332,3.216,37.818,0c2.993-1.755,1.975-32.186,1.975-32.186"/>
	<polyline fill="none" stroke="#FFFFFF" stroke-width="3" stroke-linecap="round" stroke-miterlimit="10" points="133.333,105.922 
		133.333,129.038 151.182,147.764 	"/>
	<path fill="none" stroke="#FFFFFF" stroke-width="3" stroke-linecap="round" stroke-miterlimit="10" d="M60.477,147.764
		c0,0,0,32.186,11.119,35.697c11.119,3.511,34.658,3.428,50.326,0c9.363-2.048,13.167-27.504,12.582-35.697"/>
	<polyline fill="none" stroke="#FFFFFF" stroke-width="3" stroke-linecap="round" stroke-miterlimit="10" points="60.477,105.922 
		60.477,129.33 39.117,147.764 	"/>
	<path fill="none" stroke="#FFFFFF" stroke-width="3" stroke-linecap="round" stroke-miterlimit="10" d="M39.117,106.8
		l21.359-19.311c0,0-4.286-39.404,9.948-55.886c5.559-6.437,43.597-6.73,50.912,0c10.464,9.627,11.996,55.593,11.996,55.593
		l17.848,19.604"/>
	
		<line fill="none" stroke="#FFFFFF" stroke-width="3" stroke-linecap="round" stroke-miterlimit="10" x1="49.797" y1="70.811" x2="59.911" y2="70.811"/>
	
		<line fill="none" stroke="#FFFFFF" stroke-width="3" stroke-linecap="round" stroke-miterlimit="10" x1="132.164" y1="70.811" x2="142.258" y2="70.811"/>
</g>
</svg>
