<?xml version="1.0" encoding="utf-8"?>
<!-- Generator: Adobe Illustrator 17.0.0, SVG Export Plug-In . SVG Version: 6.00 Build 0)  -->
<!DOCTYPE svg PUBLIC "-//W3C//DTD SVG 1.1//EN" "http://www.w3.org/Graphics/SVG/1.1/DTD/svg11.dtd">
<svg version="1.1" id="Capa_1" xmlns="http://www.w3.org/2000/svg" xmlns:xlink="http://www.w3.org/1999/xlink" x="0px" y="0px"
	 width="200px" height="200px" viewBox="0 0 200 200" enable-background="new 0 0 200 200" xml:space="preserve">
<g>
	<path fill="#FFFFFF" d="M61.267,78.863c-0.589-0.748-1.348-1.34-2.255-1.76c-0.884-0.41-1.894-0.617-3-0.617
		c-1.114,0-2.122,0.211-2.995,0.626c-0.873,0.415-1.618,0.995-2.214,1.723c-0.573,0.701-1.003,1.513-1.276,2.416
		c-0.252,0.835-0.38,1.725-0.38,2.644v3.481c0,0.894,0.129,1.765,0.384,2.591c0.273,0.881,0.701,1.681,1.272,2.379
		c0.6,0.734,1.359,1.317,2.255,1.732c0.885,0.41,1.909,0.617,3.045,0.617c1.114,0,2.122-0.211,2.995-0.626
		c0.897-0.427,1.642-1.026,2.216-1.784c0.517-0.683,0.913-1.463,1.179-2.32c0.255-0.824,0.384-1.695,0.384-2.589v-3.481
		c0-0.919-0.128-1.809-0.381-2.645C62.228,80.36,61.814,79.558,61.267,78.863z M58.822,87.376c0,0.487-0.068,0.955-0.203,1.389
		c-0.127,0.41-0.304,0.761-0.539,1.071c-0.179,0.236-0.416,0.423-0.723,0.569c-0.326,0.155-0.748,0.233-1.255,0.233
		c-0.543,0-0.994-0.081-1.34-0.242c-0.34-0.157-0.608-0.36-0.821-0.619c-0.242-0.296-0.417-0.627-0.536-1.011
		c-0.135-0.436-0.203-0.903-0.203-1.39v-3.481c0-0.521,0.069-1.016,0.206-1.47c0.12-0.396,0.294-0.73,0.533-1.022
		c0.217-0.264,0.483-0.47,0.816-0.628c0.326-0.155,0.748-0.233,1.254-0.233c0.513,0,0.949,0.081,1.295,0.242
		c0.327,0.151,0.581,0.345,0.775,0.59c0.235,0.299,0.41,0.643,0.533,1.05c0.138,0.454,0.207,0.949,0.207,1.471V87.376z"/>
	<path fill="#FFFFFF" d="M99.82,109.936c-1.402-1.419-3.184-2.556-5.295-3.38c-2.08-0.813-4.512-1.224-7.225-1.224
		c-2.656,0-5.05,0.413-7.117,1.226c-1.692,0.665-3.178,1.535-4.433,2.591l17.113-27.39c0.302-0.484,0.386-1.073,0.233-1.621
		c-0.154-0.549-0.532-1.008-1.042-1.265L84.956,75.3c-0.934-0.471-2.076-0.152-2.632,0.737l-10.509,16.82
		c0.58-1.734,0.875-3.575,0.875-5.483v-3.481c0-2.099-0.345-4.106-1.028-5.966c-0.7-1.906-1.764-3.599-3.165-5.036
		c-1.402-1.437-3.177-2.584-5.276-3.41c-2.068-0.813-4.493-1.226-7.208-1.226c-2.654,0-5.049,0.413-7.118,1.226
		c-2.095,0.824-3.875,1.969-5.289,3.401c-1.416,1.434-2.497,3.126-3.214,5.029c-0.701,1.864-1.056,3.877-1.056,5.982v3.481
		c0,2.075,0.355,4.072,1.056,5.936c0.719,1.911,1.814,3.601,3.254,5.024c1.427,1.409,3.208,2.54,5.294,3.36
		c2.068,0.813,4.478,1.226,7.163,1.226c2.688,0,5.092-0.413,7.145-1.228c1.971-0.781,3.658-1.843,5.021-3.16L50.177,127.49
		c-0.302,0.484-0.386,1.072-0.233,1.621c0.154,0.549,0.532,1.008,1.041,1.265l7.099,3.572c0.935,0.471,2.076,0.152,2.632-0.737
		l10.499-16.805c-0.394,1.451-0.593,2.965-0.593,4.517v3.481c0,2.105,0.355,4.117,1.056,5.982c0.719,1.911,1.814,3.601,3.254,5.024
		c1.427,1.409,3.208,2.54,5.295,3.361c2.068,0.813,4.478,1.226,7.163,1.226c2.718,0,5.137-0.413,7.19-1.228
		c2.078-0.824,3.84-1.96,5.24-3.376c1.404-1.422,2.472-3.111,3.174-5.022c0.682-1.86,1.028-3.867,1.028-5.966v-3.481
		c0-2.066-0.345-4.064-1.027-5.938C102.294,113.058,101.225,111.359,99.82,109.936z M67.853,91.899
		c-0.506,1.38-1.243,2.547-2.252,3.568c-1.002,1.015-2.297,1.841-3.849,2.456c-1.575,0.626-3.476,0.942-5.649,0.942
		c-2.175,0-4.085-0.318-5.678-0.944c-1.572-0.619-2.894-1.45-3.928-2.471c-1.035-1.022-1.79-2.189-2.308-3.567
		c-0.529-1.406-0.797-2.923-0.797-4.508v-3.481c0-1.616,0.268-3.148,0.797-4.554c0.514-1.367,1.289-2.58,2.303-3.607
		c1.015-1.028,2.323-1.861,3.888-2.477c1.594-0.626,3.489-0.944,5.633-0.944c2.204,0,4.13,0.318,5.723,0.944
		c1.561,0.614,2.859,1.444,3.858,2.468c0.999,1.024,1.759,2.235,2.26,3.6c0.518,1.411,0.78,2.948,0.78,4.569v3.481
		C68.633,88.966,68.37,90.488,67.853,91.899z M58.256,129.494l-3.46-1.74l29.988-47.998l3.46,1.741L58.256,129.494z M99.966,124.405
		c0,1.621-0.262,3.158-0.78,4.568c-0.507,1.381-1.244,2.549-2.252,3.569c-1.002,1.014-2.297,1.841-3.849,2.456
		c-1.575,0.625-3.491,0.942-5.694,0.942c-2.175,0-4.085-0.318-5.678-0.944c-1.573-0.619-2.894-1.45-3.929-2.472
		c-1.034-1.021-1.789-2.188-2.307-3.566c-0.529-1.406-0.797-2.938-0.797-4.553v-3.481c0-1.587,0.269-3.114,0.799-4.536
		c0.513-1.375,1.284-2.584,2.292-3.592c1.017-1.017,2.329-1.846,3.898-2.463c1.592-0.626,3.488-0.944,5.633-0.944
		c2.207,0,4.142,0.318,5.751,0.947c1.577,0.615,2.885,1.44,3.884,2.452c1.007,1.019,1.743,2.192,2.25,3.585
		c0.519,1.428,0.782,2.959,0.782,4.552V124.405z"/>
	<path fill="#FFFFFF" d="M92.554,115.91c-0.6-0.734-1.359-1.317-2.255-1.732c-0.885-0.41-1.894-0.617-3-0.617
		c-1.106,0-2.116,0.208-3.001,0.617c-0.896,0.415-1.654,0.997-2.254,1.731c-0.573,0.701-1.003,1.513-1.276,2.416
		c-0.252,0.835-0.38,1.71-0.38,2.598v3.481c0,0.945,0.177,1.873,0.526,2.758c0.346,0.873,0.833,1.659,1.448,2.336
		c0.629,0.691,1.373,1.245,2.213,1.644c0.874,0.415,1.821,0.626,2.814,0.626c1.329,0,2.416-0.199,3.322-0.61
		c0.967-0.437,1.74-1.064,2.298-1.864c0.52-0.747,0.862-1.606,1.015-2.55c0.123-0.752,0.185-1.538,0.185-2.339v-3.481
		c0-0.889-0.128-1.763-0.381-2.6C93.557,117.423,93.128,116.61,92.554,115.91z M90.154,124.405c0,0.582-0.044,1.149-0.132,1.687
		c-0.056,0.347-0.168,0.636-0.34,0.883c-0.135,0.194-0.345,0.354-0.642,0.488c-0.251,0.114-0.741,0.249-1.65,0.249
		c-0.392,0-0.744-0.076-1.074-0.233c-0.365-0.174-0.676-0.405-0.952-0.708c-0.288-0.318-0.51-0.678-0.677-1.098
		c-0.164-0.414-0.243-0.829-0.243-1.268v-3.481c0-0.491,0.07-0.971,0.207-1.424c0.12-0.396,0.294-0.73,0.533-1.022
		c0.212-0.26,0.48-0.462,0.82-0.619c0.346-0.161,0.781-0.242,1.295-0.242c0.513,0,0.949,0.081,1.295,0.242
		c0.34,0.157,0.608,0.36,0.821,0.62c0.239,0.292,0.413,0.626,0.532,1.02c0.137,0.454,0.207,0.934,0.207,1.425V124.405z"/>
	<path fill="#FFFFFF" d="M130.415,87.361c-1.022,0-1.851,0.829-1.851,1.851v7.404c0,1.022,0.829,1.851,1.851,1.851
		c1.022,0,1.851-0.829,1.851-1.851v-7.404C132.265,88.19,131.437,87.361,130.415,87.361z"/>
	<path fill="#FFFFFF" d="M130.415,69.269c-1.022,0-1.851,0.829-1.851,1.851v7.404c0,1.022,0.829,1.851,1.851,1.851
		c1.022,0,1.851-0.829,1.851-1.851V71.12C132.265,70.098,131.437,69.269,130.415,69.269z"/>
	<path fill="#FFFFFF" d="M181.862,51H26.721c-5.654,0-10.254,4.6-10.254,10.254v85.747c0,5.654,4.6,10.254,10.254,10.254h103.693
		c1.12,0,2.028-0.908,2.028-2.028v-36.721l23.098,37.778c0.046,0.076,0.097,0.148,0.152,0.216c0.03,0.037,0.064,0.07,0.096,0.105
		c0.027,0.029,0.052,0.06,0.08,0.087c0.039,0.037,0.081,0.07,0.123,0.103c0.025,0.02,0.048,0.043,0.074,0.062
		c0.043,0.032,0.089,0.059,0.134,0.087c0.028,0.017,0.054,0.037,0.082,0.052c0.045,0.025,0.093,0.046,0.14,0.067
		c0.031,0.014,0.06,0.031,0.092,0.044c0.052,0.021,0.107,0.037,0.161,0.053c0.028,0.009,0.054,0.02,0.083,0.028
		c0.078,0.02,0.158,0.035,0.239,0.046l0.014,0.003c0.086,0.011,0.174,0.017,0.262,0.017l0.004,0h24.587
		c5.654,0,10.254-4.6,10.254-10.254V61.254C192.116,55.6,187.515,51,181.862,51z M155.242,148.021l-21.21-34.692h21.21V148.021z
		 M188.059,147.001c0,3.417-2.78,6.198-6.198,6.198h-22.563V111.3c0-1.12-0.908-2.028-2.028-2.028h-25.005v-1.969
		c0-1.022-0.829-1.851-1.851-1.851c-1.022,0-1.851,0.829-1.851,1.851v3.177c-0.018,0.042-0.036,0.083-0.052,0.126
		c-0.013,0.035-0.023,0.071-0.034,0.106c-0.019,0.063-0.035,0.127-0.048,0.191c-0.007,0.036-0.014,0.072-0.019,0.108
		c-0.011,0.076-0.017,0.151-0.019,0.227c0,0.021-0.005,0.041-0.005,0.062v41.898H26.721c-3.418,0-6.198-2.78-6.198-6.198V61.254
		c0-3.418,2.78-6.198,6.198-6.198h101.843v5.375c0,1.022,0.829,1.851,1.851,1.851c1.022,0,1.851-0.829,1.851-1.851v-5.375h49.596
		c3.417,0,6.198,2.78,6.198,6.198V147.001z"/>
</g>
</svg>
