<?xml version="1.0" encoding="utf-8"?>
<!-- Generator: Adobe Illustrator 17.0.0, SVG Export Plug-In . SVG Version: 6.00 Build 0)  -->
<!DOCTYPE svg PUBLIC "-//W3C//DTD SVG 1.1//EN" "http://www.w3.org/Graphics/SVG/1.1/DTD/svg11.dtd">
<svg version="1.1" id="Capa_1" xmlns="http://www.w3.org/2000/svg" xmlns:xlink="http://www.w3.org/1999/xlink" x="0px" y="0px"
	 width="200px" height="200px" viewBox="0 0 200 200" enable-background="new 0 0 200 200" xml:space="preserve">
<g>
	<path fill="#FFFFFF" d="M167.608,37.358H32.392c-10.972,0-19.899,8.927-19.899,19.899v6.896V85.42v57.323
		c0,10.972,8.927,19.899,19.899,19.899h135.216c10.972,0,19.899-8.927,19.899-19.899V85.42V64.153v-6.896
		C187.506,46.285,178.58,37.358,167.608,37.358z M32.392,41.09h135.216c8.915,0,16.167,7.253,16.167,16.167v5.03H16.225v-5.03
		C16.225,48.343,23.478,41.09,32.392,41.09z M183.775,83.554H16.225V66.019h167.549V83.554z M167.608,158.91H32.392
		c-8.915,0-16.167-7.253-16.167-16.167V87.286h167.549v55.457C183.775,151.657,176.522,158.91,167.608,158.91z"/>
	<path fill="#FFFFFF" d="M75.975,94.004H33.011c-1.03,0-1.866,0.835-1.866,1.866v16.306c0,1.031,0.836,1.866,1.866,1.866h42.964
		c1.03,0,1.866-0.835,1.866-1.866V95.87C77.841,94.839,77.005,94.004,75.975,94.004z M74.109,110.31H34.877V97.736h39.232V110.31z"
		/>
	<path fill="#FFFFFF" d="M75.975,123.69H33.011c-1.03,0-1.866,0.835-1.866,1.866v16.306c0,1.03,0.836,1.866,1.866,1.866h42.964
		c1.03,0,1.866-0.835,1.866-1.866v-16.306C77.841,124.525,77.005,123.69,75.975,123.69z M74.109,139.996H34.877v-12.574h39.232
		V139.996z"/>
	<path fill="#FFFFFF" d="M159.441,117.939c-3.673,0-7.131,1.255-9.911,3.566c-2.781-2.312-6.238-3.566-9.912-3.566
		c-8.578,0-15.557,6.979-15.557,15.557c0,8.578,6.979,15.557,15.557,15.557c3.674,0,7.131-1.255,9.912-3.566
		c2.78,2.312,6.238,3.566,9.911,3.566c8.579,0,15.558-6.979,15.558-15.557C174.999,124.918,168.02,117.939,159.441,117.939z
		 M159.441,145.322c-3.264,0-6.303-1.304-8.56-3.672c-0.353-0.37-0.841-0.579-1.351-0.579c-0.511,0-0.999,0.209-1.351,0.579
		c-2.256,2.368-5.296,3.672-8.56,3.672c-6.521,0-11.825-5.305-11.825-11.825c0-6.52,5.305-11.825,11.825-11.825
		c3.264,0,6.304,1.304,8.56,3.672c0.353,0.37,0.841,0.579,1.351,0.579c0.51,0,0.998-0.209,1.351-0.579
		c2.256-2.368,5.296-3.672,8.56-3.672c6.521,0,11.826,5.305,11.826,11.825C171.267,140.017,165.962,145.322,159.441,145.322z"/>
</g>
</svg>
