<?xml version="1.0" encoding="utf-8"?>
<!-- Generator: Adobe Illustrator 17.0.0, SVG Export Plug-In . SVG Version: 6.00 Build 0)  -->
<!DOCTYPE svg PUBLIC "-//W3C//DTD SVG 1.1//EN" "http://www.w3.org/Graphics/SVG/1.1/DTD/svg11.dtd">
<svg version="1.1" id="Capa_1" xmlns="http://www.w3.org/2000/svg" xmlns:xlink="http://www.w3.org/1999/xlink" x="0px" y="0px"
	 width="1000px" height="1000px" viewBox="0 0 1000 1000" enable-background="new 0 0 1000 1000" xml:space="preserve">
<g id="icon_109" display="none">
	<path display="inline" fill-rule="evenodd" clip-rule="evenodd" fill="#1B1A1B" d="M534.752,326.24h-69.504v69.504h69.504V326.24z
		 M673.76,604.256h-69.504v69.504h69.504V604.256z M673.76,465.257h-69.504v69.495h69.504V465.257z M534.752,465.257h-69.504v69.495
		h69.504V465.257z M812.767,465.257h-69.504v69.495h69.504V465.257z M534.752,604.256h-69.504v69.504h69.504V604.256z
		 M812.767,326.24h-69.504v69.504h69.504V326.24z M812.767,604.256h-69.504v69.504h69.504V604.256z M673.76,326.24h-69.504v69.504
		h69.504V326.24z M256.745,743.264h-69.513v69.504h69.513V743.264z M256.745,604.256h-69.513v69.504h69.513V604.256z
		 M395.753,743.264H326.24v69.504h69.513V743.264z M534.752,743.264h-69.504v69.504h69.504V743.264z M82.977,82.977v834.047h834.047
		V82.977H82.977z M882.271,882.271H117.729V256.736h764.543V882.271z M256.745,465.257h-69.513v69.495h69.513V465.257z
		 M395.753,326.24H326.24v69.504h69.513V326.24z M395.753,465.257H326.24v69.495h69.513V465.257z M395.753,604.256H326.24v69.504
		h69.513V604.256z M673.76,743.264h-69.504v69.504h69.504V743.264z"/>
</g>
<g id="icon_065" display="none">
	<path display="inline" fill-rule="evenodd" clip-rule="evenodd" fill="#FFFFFF" d="M82.977,256.728h139.008v-34.743H82.977V256.728
		z M82.977,604.256h139.008v-34.752H82.977V604.256z M82.977,778.016h139.008v-34.743H82.977V778.016z M82.977,430.496h139.008
		v-34.752H82.977V430.496z M360.992,221.984v34.743h556.031v-34.743H360.992z M360.992,430.496h556.031v-34.752H360.992V430.496z
		 M360.992,604.256h556.031v-34.752H360.992V604.256z M360.992,778.016h556.031v-34.743H360.992V778.016z"/>
</g>
<g id="icon_254">
	<path fill-rule="evenodd" clip-rule="evenodd" fill="#FFFFFF" d="M225.86,174.459c-28.385,0-51.401,23.007-51.401,51.401
		s23.016,51.401,51.401,51.401s51.401-23.007,51.401-51.401S254.246,174.459,225.86,174.459z M431.465,88.791H225.86
		c-75.705,0-137.07,61.373-137.07,137.07v205.605l479.744,479.744l342.674-342.674L431.465,88.791z M123.058,414.331V225.86
		c0-56.689,46.114-102.802,102.802-102.802h188.471l445.477,445.477L568.535,859.808L123.058,414.331z M757.006,534.267
		L534.267,757.006l34.267,34.267l222.738-222.738L757.006,534.267z M688.471,465.733L465.733,688.471L500,722.738L722.738,500
		L688.471,465.733z"/>
</g>
</svg>
