<?xml version="1.0" encoding="utf-8"?>
<!-- Generator: Adobe Illustrator 17.0.0, SVG Export Plug-In . SVG Version: 6.00 Build 0)  -->
<!DOCTYPE svg PUBLIC "-//W3C//DTD SVG 1.1//EN" "http://www.w3.org/Graphics/SVG/1.1/DTD/svg11.dtd">
<svg version="1.1" id="Capa_1" xmlns="http://www.w3.org/2000/svg" xmlns:xlink="http://www.w3.org/1999/xlink" x="0px" y="0px"
	 width="1000px" height="1000px" viewBox="0 0 1000 1000" enable-background="new 0 0 1000 1000" xml:space="preserve">
<polygon display="none" fill-rule="evenodd" clip-rule="evenodd" fill="#FFFFFF" points="423.5,752 583.1,752 370.3,539.2 
	849.1,539.2 849.1,432.8 370.3,432.8 583.1,220 423.5,220 157.5,486 "/>
<path fill-rule="evenodd" clip-rule="evenodd" fill="#FFFFFF" d="M424.755,355.091h157.091V198H424.755V355.091z M634.209,198
	v157.091H791.3V198H634.209z M215.3,355.091h157.091V198H215.3V355.091z M424.755,564.545h157.091V407.455H424.755V564.545z
	 M634.209,564.545H791.3V407.455H634.209V564.545z M215.3,564.545h157.091V407.455H215.3V564.545z M424.755,774h157.091V616.909
	H424.755V774z M634.209,774H791.3V616.909H634.209V774z M215.3,774h157.091V616.909H215.3V774z"/>
</svg>
