<?xml version="1.0" encoding="utf-8"?>
<!-- Generator: Adobe Illustrator 17.0.0, SVG Export Plug-In . SVG Version: 6.00 Build 0)  -->
<!DOCTYPE svg PUBLIC "-//W3C//DTD SVG 1.1//EN" "http://www.w3.org/Graphics/SVG/1.1/DTD/svg11.dtd">
<svg version="1.1" id="Capa_1" xmlns="http://www.w3.org/2000/svg" xmlns:xlink="http://www.w3.org/1999/xlink" x="0px" y="0px"
	 width="200px" height="200px" viewBox="0 0 200 200" enable-background="new 0 0 200 200" xml:space="preserve">
<path fill="#FFFFFF" d="M175.71,103.183l-66.156-66.156c-2.439-2.439-5.68-3.781-9.127-3.781c-3.45,0-6.691,1.342-9.127,3.781
	l-66.156,66.156c-2.206,2.206-2.861,5.494-1.666,8.378c1.194,2.883,3.981,4.745,7.101,4.745h11.778c0.908,0,1.648,0.74,1.648,1.648
	v36.462c0,7.119,5.791,12.91,12.907,12.91h30.294h26.44h30.291c7.119,0,12.91-5.792,12.91-12.91v-36.462
	c0-0.908,0.74-1.648,1.648-1.648h11.778c3.12,0,5.907-1.862,7.101-4.745C178.57,108.677,177.915,105.389,175.71,103.183z
	 M90.226,161.287v-32.615h20.401v32.615H90.226z M171.796,109.249c-0.127,0.306-0.528,1.017-1.522,1.017h-11.778
	c-4.241,0-7.688,3.449-7.688,7.688v36.462c0,3.789-3.082,6.871-6.871,6.871h-27.271v-35.635c0-1.667-1.351-3.02-3.02-3.02h-26.44
	c-1.669,0-3.02,1.352-3.02,3.02v35.635H56.913c-3.786,0-6.868-3.082-6.868-6.871v-36.462c0-4.239-3.447-7.688-7.688-7.688H30.579
	c-0.994,0-1.395-0.711-1.522-1.017c-0.127-0.305-0.345-1.093,0.357-1.796L95.57,41.297c1.298-1.298,3.023-2.011,4.857-2.011
	s3.559,0.714,4.857,2.011l66.156,66.156C172.141,108.156,171.923,108.944,171.796,109.249z"/>
</svg>
