<?xml version="1.0" encoding="utf-8"?>
<!-- Generator: Adobe Illustrator 17.0.0, SVG Export Plug-In . SVG Version: 6.00 Build 0)  -->
<!DOCTYPE svg PUBLIC "-//W3C//DTD SVG 1.1//EN" "http://www.w3.org/Graphics/SVG/1.1/DTD/svg11.dtd">
<svg version="1.1" id="Capa_1" xmlns="http://www.w3.org/2000/svg" xmlns:xlink="http://www.w3.org/1999/xlink" x="0px" y="0px"
	 width="1000px" height="1000px" viewBox="0 0 1000 1000" enable-background="new 0 0 1000 1000" xml:space="preserve">
<polygon display="none" fill-rule="evenodd" clip-rule="evenodd" fill="#FFFFFF" points="423.5,752 583.1,752 370.3,539.2 
	849.1,539.2 849.1,432.8 370.3,432.8 583.1,220 423.5,220 157.5,486 "/>
<path fill-rule="evenodd" clip-rule="evenodd" fill="#1D2641" d="M500,119.5c-210.144,0-380.5,170.369-380.5,380.5
	c0,210.16,170.356,380.5,380.5,380.5c210.144,0,380.5-170.34,380.5-380.5C880.5,289.869,710.144,119.5,500,119.5z M182.917,500
	c0-175.109,141.961-317.083,317.083-317.083c175.122,0,317.083,141.974,317.083,317.083
	C817.083,714.031,182.917,714.031,182.917,500z M563.417,626.833l79.271-364.646L436.583,626.833H563.417z"/>
</svg>
