<?xml version="1.0" encoding="utf-8"?>
<!-- Generator: Adobe Illustrator 17.0.0, SVG Export Plug-In . SVG Version: 6.00 Build 0)  -->
<!DOCTYPE svg PUBLIC "-//W3C//DTD SVG 1.1//EN" "http://www.w3.org/Graphics/SVG/1.1/DTD/svg11.dtd">
<svg version="1.1" id="Capa_1" xmlns="http://www.w3.org/2000/svg" xmlns:xlink="http://www.w3.org/1999/xlink" x="0px" y="0px"
	 width="1000px" height="1000px" viewBox="0 0 1000 1000" enable-background="new 0 0 1000 1000" xml:space="preserve">
<path fill-rule="evenodd" clip-rule="evenodd" fill="#1D2641" d="M500,124.047c-156.647,0-281.965,125.318-281.965,281.965
	c0,54.122,16.216,96.037,44.209,138.473l208.05,315.682v0.031c6.272,9.483,17.225,15.756,29.707,15.756
	c12.513,0,23.466-6.303,29.738-15.787l208.046-315.682c27.965-42.436,44.181-84.351,44.181-138.473
	C781.965,249.364,656.647,124.047,500,124.047z M500,562.568c-86.523,0-156.647-70.216-156.647-156.801
	c0-86.617,70.124-156.801,156.647-156.801c86.522,0,156.647,70.184,156.647,156.801C656.647,492.352,586.522,562.568,500,562.568z"
	/>
</svg>
