<?xml version="1.0" encoding="utf-8"?>
<!-- Generator: Adobe Illustrator 17.0.0, SVG Export Plug-In . SVG Version: 6.00 Build 0)  -->
<!DOCTYPE svg PUBLIC "-//W3C//DTD SVG 1.1//EN" "http://www.w3.org/Graphics/SVG/1.1/DTD/svg11.dtd">
<svg version="1.1" id="Capa_1" xmlns="http://www.w3.org/2000/svg" xmlns:xlink="http://www.w3.org/1999/xlink" x="0px" y="0px"
	 width="200px" height="200px" viewBox="0 0 200 200" enable-background="new 0 0 200 200" xml:space="preserve">
<g>
	<path fill="#FFFFFF" d="M87.954,181.951c2.12,4.869,6.735,7.894,12.046,7.894c5.31,0,9.925-3.025,12.045-7.894l15.959-36.656
		c6.19-14.216,13.656-27.773,22.19-40.294c6.875-10.088,10.509-21.895,10.509-34.144c0-33.952-27.984-61.466-62.163-60.687
		C65.54,10.947,38.964,38.453,39.299,71.486c0.122,11.96,3.721,23.5,10.408,33.371c8.694,12.835,16.194,26.444,22.292,40.448
		L87.954,181.951z M100,18.154c29.061,0,52.703,23.643,52.703,52.704c0,10.636-3.153,20.885-9.119,29.638
		c-8.816,12.935-16.526,26.933-22.914,41.606l-15.959,36.655c-0.855,1.962-2.572,3.088-4.711,3.088c-2.14,0-3.857-1.125-4.711-3.087
		l-15.955-36.646c-6.294-14.456-14.034-28.5-23.004-41.742c-5.803-8.566-8.926-18.582-9.031-28.965
		c-0.292-28.681,22.78-52.563,51.431-53.236C99.156,18.159,99.577,18.154,100,18.154z"/>
	<path fill="#FFFFFF" d="M100,107.474c20.19,0,36.616-16.425,36.616-36.615c0-20.19-16.426-36.616-36.616-36.616
		S63.385,50.669,63.385,70.858C63.385,91.048,79.811,107.474,100,107.474z"/>
</g>
</svg>
