<?xml version="1.0" encoding="utf-8"?>
<!-- Generator: Adobe Illustrator 17.0.0, SVG Export Plug-In . SVG Version: 6.00 Build 0)  -->
<!DOCTYPE svg PUBLIC "-//W3C//DTD SVG 1.1//EN" "http://www.w3.org/Graphics/SVG/1.1/DTD/svg11.dtd">
<svg version="1.1" id="Capa_1" xmlns="http://www.w3.org/2000/svg" xmlns:xlink="http://www.w3.org/1999/xlink" x="0px" y="0px"
	 width="1000px" height="1000px" viewBox="0 0 1000 1000" enable-background="new 0 0 1000 1000" xml:space="preserve">
<g id="icon_190">
	<path fill-rule="evenodd" clip-rule="evenodd" fill="#323232" d="M500,257.103c-83.838,0-151.811,67.973-151.811,151.811
		S416.162,560.724,500,560.724c83.837,0,151.811-67.973,151.811-151.811S583.837,257.103,500,257.103z M500,530.362
		c-67.07,0-121.448-54.379-121.448-121.448S432.93,287.465,500,287.465s121.448,54.379,121.448,121.448S567.07,530.362,500,530.362z
		 M500,135.655c-151.811,0-273.259,121.448-273.259,273.259c0,52.452,15.715,93.074,42.83,134.213h0.015l201.623,305.92v0.044
		c6.078,9.177,16.708,15.255,28.776,15.255H500c12.113,0,22.756-6.107,28.806-15.299l201.623-305.92
		c27.115-41.139,42.831-81.761,42.831-134.213C773.259,257.103,651.811,135.655,500,135.655z M705.078,526.418l-201.624,305.92
		c-0.193,0.296-1.201,1.646-3.453,1.646c-1.543,0-2.654-0.667-3.261-1.378L294.937,526.418
		c-26.523-40.206-37.834-75.356-37.834-117.504c0-133.932,108.965-242.897,242.897-242.897
		c133.932,0,242.897,108.965,242.897,242.897C742.897,451.062,731.585,486.197,705.078,526.418z"/>
</g>
</svg>
