<?xml version="1.0" encoding="utf-8"?>
<!-- Generator: Adobe Illustrator 17.0.0, SVG Export Plug-In . SVG Version: 6.00 Build 0)  -->
<!DOCTYPE svg PUBLIC "-//W3C//DTD SVG 1.1//EN" "http://www.w3.org/Graphics/SVG/1.1/DTD/svg11.dtd">
<svg version="1.1" id="Capa_1" xmlns="http://www.w3.org/2000/svg" xmlns:xlink="http://www.w3.org/1999/xlink" x="0px" y="0px"
	 width="1000px" height="1000px" viewBox="0 0 1000 1000" enable-background="new 0 0 1000 1000" xml:space="preserve">
<g id="icon_128">
	<path fill-rule="evenodd" clip-rule="evenodd" fill="#005374" d="M500,396.643c-57.079,0-103.357,46.278-103.357,103.357
		S442.921,603.357,500,603.357S603.357,557.079,603.357,500S557.079,396.643,500,396.643z M500,568.905
		c-38.053,0-68.905-30.852-68.905-68.905s30.852-68.905,68.905-68.905s68.905,30.852,68.905,68.905S538.053,568.905,500,568.905z
		 M224.381,396.643c-57.079,0-103.357,46.278-103.357,103.357s46.278,103.357,103.357,103.357
		c57.088,0,103.357-46.278,103.357-103.357S281.468,396.643,224.381,396.643z M224.381,568.905
		c-38.053,0-68.905-30.852-68.905-68.905s30.852-68.905,68.905-68.905s68.905,30.852,68.905,68.905S262.433,568.905,224.381,568.905
		z M775.619,327.738c57.088,0,103.357-46.278,103.357-103.357s-46.27-103.357-103.357-103.357
		c-57.079,0-103.357,46.278-103.357,103.357S718.54,327.738,775.619,327.738z M775.619,155.476
		c38.053,0,68.905,30.852,68.905,68.905s-30.852,68.905-68.905,68.905s-68.905-30.852-68.905-68.905
		S737.567,155.476,775.619,155.476z M775.619,396.643c-57.079,0-103.357,46.278-103.357,103.357s46.278,103.357,103.357,103.357
		c57.088,0,103.357-46.278,103.357-103.357S832.707,396.643,775.619,396.643z M775.619,568.905
		c-38.053,0-68.905-30.852-68.905-68.905s30.852-68.905,68.905-68.905s68.905,30.852,68.905,68.905S813.672,568.905,775.619,568.905
		z M224.381,672.262c-57.079,0-103.357,46.278-103.357,103.357s46.278,103.357,103.357,103.357
		c57.088,0,103.357-46.278,103.357-103.357S281.468,672.262,224.381,672.262z M224.381,844.524
		c-38.053,0-68.905-30.852-68.905-68.905s30.852-68.905,68.905-68.905s68.905,30.852,68.905,68.905S262.433,844.524,224.381,844.524
		z M500,672.262c-57.079,0-103.357,46.278-103.357,103.357S442.921,878.977,500,878.977s103.357-46.278,103.357-103.357
		S557.079,672.262,500,672.262z M500,844.524c-38.053,0-68.905-30.852-68.905-68.905s30.852-68.905,68.905-68.905
		s68.905,30.852,68.905,68.905S538.053,844.524,500,844.524z M775.619,672.262c-57.079,0-103.357,46.278-103.357,103.357
		s46.278,103.357,103.357,103.357c57.088,0,103.357-46.278,103.357-103.357S832.707,672.262,775.619,672.262z M775.619,844.524
		c-38.053,0-68.905-30.852-68.905-68.905s30.852-68.905,68.905-68.905s68.905,30.852,68.905,68.905S813.672,844.524,775.619,844.524
		z M500,121.023c-57.079,0-103.357,46.278-103.357,103.357S442.921,327.738,500,327.738s103.357-46.278,103.357-103.357
		S557.079,121.023,500,121.023z M500,293.285c-38.053,0-68.905-30.852-68.905-68.905s30.852-68.905,68.905-68.905
		s68.905,30.852,68.905,68.905S538.053,293.285,500,293.285z M224.381,121.023c-57.079,0-103.357,46.278-103.357,103.357
		s46.278,103.357,103.357,103.357c57.088,0,103.357-46.278,103.357-103.357S281.468,121.023,224.381,121.023z M224.381,293.285
		c-38.053,0-68.905-30.852-68.905-68.905s30.852-68.905,68.905-68.905s68.905,30.852,68.905,68.905S262.433,293.285,224.381,293.285
		z"/>
</g>
</svg>
