<?xml version="1.0" encoding="utf-8"?>
<!-- Generator: Adobe Illustrator 17.0.0, SVG Export Plug-In . SVG Version: 6.00 Build 0)  -->
<!DOCTYPE svg PUBLIC "-//W3C//DTD SVG 1.1//EN" "http://www.w3.org/Graphics/SVG/1.1/DTD/svg11.dtd">
<svg version="1.1" id="Capa_1" xmlns="http://www.w3.org/2000/svg" xmlns:xlink="http://www.w3.org/1999/xlink" x="0px" y="0px"
	 width="1000px" height="1000px" viewBox="0 0 1000 1000" enable-background="new 0 0 1000 1000" xml:space="preserve">
<g id="icon_122">
	<path fill="#FFFFFF" d="M809.958,855.23l-68.31-141.966c-14.639-30.409-33.732-52.446-66.62-38.903l-64.771,24.109
		c-51.825,24.151-77.737,0-103.649-36.202L390.029,396.794c-14.641-30.427-6.993-58.868,25.894-72.411l90.685-36.202
		c32.903-13.534,27.604-41.984,12.965-72.411L441.835,70.965c-14.621-30.427-44.832-37.685-77.72-24.142
		c-65.756,27.139-120.151,69.623-155.456,132.747c-43.056,77.002-21.51,184.208-12.947,229.292
		c8.545,45.066,38.686,124.028,77.72,205.14c39.032,81.119,73.16,144.96,103.631,181.032
		c30.487,36.038,103.648,134.921,194.315,156.88c74.354,17.998,154.439,2.883,220.246-24.151
		C824.512,914.237,824.598,885.657,809.958,855.23z M783.752,891.82c-0.034,0-1.243,1.45-5.576,3.228
		c-46.68,19.171-94.655,29.313-138.711,29.313c-20.924,0-41.036-2.296-59.767-6.836c-70.122-16.979-131.805-92.074-164.95-132.427
		c-3.988-4.851-7.561-9.201-10.704-12.914c-31.436-37.227-69.295-112.281-98.763-173.522
		c-37.703-78.349-67.067-155.431-74.837-196.397l-0.518-2.683c-7.89-41.433-26.361-138.46,9.581-202.733
		c29.106-52.048,75.561-91.521,138.089-117.321c6.111-2.521,11.947-3.868,16.815-3.868c6.267,0,11.324,1.814,15.555,10.635
		l78.462,146.212c5.956,12.465,7.078,19.049,7.232,21.761c-0.587,0.327-1.398,0.734-2.503,1.19l-90.338,36.073
		c-31.023,12.774-44.314,33.308-50.063,48.32c-8.512,22.244-6.647,47.24,5.42,72.28l117.546,267.737l2.141,2.987
		c14.105,19.714,43.434,60.723,94.466,60.723h0.016c16.333,0,33.199-4.064,51.497-12.403l63.513-23.669
		c4.315-1.743,5.955-1.847,6.369-1.847c0.173,0.018,6.095,2.227,16.073,22.953l68.312,141.955
		C785.358,885.657,783.822,891.613,783.752,891.82z"/>
</g>
</svg>
