<?xml version="1.0" encoding="utf-8"?>
<!-- Generator: Adobe Illustrator 17.0.0, SVG Export Plug-In . SVG Version: 6.00 Build 0)  -->
<!DOCTYPE svg PUBLIC "-//W3C//DTD SVG 1.1//EN" "http://www.w3.org/Graphics/SVG/1.1/DTD/svg11.dtd">
<svg version="1.1" id="Capa_1" xmlns="http://www.w3.org/2000/svg" xmlns:xlink="http://www.w3.org/1999/xlink" x="0px" y="0px"
	 width="1000px" height="1000px" viewBox="0 0 1000 1000" enable-background="new 0 0 1000 1000" xml:space="preserve">
<polygon display="none" fill-rule="evenodd" clip-rule="evenodd" fill="#FFFFFF" points="423.5,752 583.1,752 370.3,539.2 
	849.1,539.2 849.1,432.8 370.3,432.8 583.1,220 423.5,220 157.5,486 "/>
<path fill="#1D2641" d="M825.801,565.6c-7.475,6.116-16.797,9.4-26.301,9.4c-2.713,0-5.431-0.285-8.144-0.809L592,534.309v106.831
	c0,9.566,6.588,17.264,15.36,19.655l-0.062,0.244l-0.508,0.446c1.214,0.488,2.573,0.285,3.771,0.892l83,41.5
	c14.063,7.05,22.939,21.398,22.939,37.122v41.5c0,22.939-18.582,41.5-41.5,41.5l-166-41.5L343,824c-22.918,0-41.5-18.561-41.5-41.5
	V741c0-15.723,8.876-30.072,22.939-37.122l83-41.5c1.193-0.607,2.552-0.405,3.771-0.892l-0.508-0.446l-0.062-0.244
	c8.772-2.391,15.36-10.09,15.36-19.655V534.309l-199.356,39.882c-2.713,0.524-5.431,0.809-8.144,0.809
	c-9.503,0-18.825-3.284-26.301-9.405C182.571,557.695,177,545.94,177,533.5V492c0-14.592,7.641-28.085,20.143-35.581L410.64,328.796
	c8.772-2.391,15.36-10.09,15.36-19.655V243c0-45.837,37.163-83,83-83s83,37.163,83,83v66.141c0,9.566,6.588,17.264,15.36,19.655
	l213.497,127.623C833.359,463.915,841,477.413,841,492v41.5C841,545.94,835.429,557.695,825.801,565.6z M343,741v41.5"/>
<line fill="#546E7A" x1="547.28" y1="509" x2="541" y2="509"/>
</svg>
