<?xml version="1.0" encoding="utf-8"?>
<!-- Generator: Adobe Illustrator 17.0.0, SVG Export Plug-In . SVG Version: 6.00 Build 0)  -->
<!DOCTYPE svg PUBLIC "-//W3C//DTD SVG 1.1//EN" "http://www.w3.org/Graphics/SVG/1.1/DTD/svg11.dtd">
<svg version="1.1" xmlns="http://www.w3.org/2000/svg" xmlns:xlink="http://www.w3.org/1999/xlink" x="0px" y="0px" width="200px"
	 height="200px" viewBox="0 0 200 200" enable-background="new 0 0 200 200" xml:space="preserve">
<g id="Capa_1" display="none">
	<path display="inline" fill="#FFFFFF" stroke="#010002" stroke-miterlimit="10" d="M175.71,103.183l-66.156-66.156
		c-2.439-2.439-5.68-3.781-9.127-3.781c-3.45,0-6.691,1.342-9.127,3.781l-66.156,66.156c-2.206,2.206-2.861,5.494-1.666,8.378
		c1.194,2.883,3.981,4.745,7.101,4.745h11.778c0.908,0,1.648,0.74,1.648,1.648v36.462c0,7.119,5.791,12.91,12.907,12.91h30.294
		h26.44h30.291c7.119,0,12.91-5.792,12.91-12.91v-36.462c0-0.908,0.74-1.648,1.648-1.648h11.778c3.12,0,5.907-1.862,7.101-4.745
		C178.57,108.677,177.915,105.389,175.71,103.183z M90.226,161.287v-32.615h20.401v32.615H90.226z M171.796,109.249
		c-0.127,0.306-0.528,1.017-1.522,1.017h-11.778c-4.241,0-7.688,3.449-7.688,7.688v36.462c0,3.789-3.082,6.871-6.871,6.871h-27.271
		v-35.635c0-1.667-1.351-3.02-3.02-3.02h-26.44c-1.669,0-3.02,1.352-3.02,3.02v35.635H56.913c-3.786,0-6.868-3.082-6.868-6.871
		v-36.462c0-4.239-3.447-7.688-7.688-7.688H30.579c-0.994,0-1.395-0.711-1.522-1.017c-0.127-0.305-0.345-1.093,0.357-1.796
		L95.57,41.297c1.298-1.298,3.023-2.011,4.857-2.011s3.559,0.714,4.857,2.011l66.156,66.156
		C172.141,108.156,171.923,108.944,171.796,109.249z"/>
</g>
<g id="Capa_2" display="none">
	
		<image display="inline" overflow="visible" width="512" height="512" xlink:href="31-512.png"  transform="matrix(0.3906 0 0 0.3906 0 0)">
	</image>
</g>
<g id="Capa_3" display="none">
	
		<line display="inline" fill="none" stroke="#FFFFFF" stroke-width="5" stroke-linecap="round" stroke-miterlimit="10" x1="32.923" y1="166.19" x2="84.36" y2="114.753"/>
	<path display="inline" fill="none" stroke="#FFFFFF" stroke-width="5" stroke-linecap="round" stroke-miterlimit="10" d="
		M160.336,60.389c-1.469,1.496-3.52,1.864-4.58,0.822l-18.776-18.44c-1.061-1.042-0.729-3.099,0.74-4.594l0,0
		c1.469-1.496,3.52-1.864,4.58-0.822l18.776,18.44C162.136,56.836,161.805,58.893,160.336,60.389L160.336,60.389z"/>
	<path display="inline" fill="none" stroke="#FFFFFF" stroke-width="5" stroke-linecap="round" stroke-miterlimit="10" d="
		M21.783,178.751h17.221c0,0,7.749-5.56,8.972-8.374c0.616-1.417,0-6.18,0-6.18s5.482,0.388,7.775,0
		c1.622-0.275,3.788-5.383,3.788-5.383s-1.994-3.19,0-4.984c1.994-1.794,6.18-6.38,6.18-6.38s4.586-1.994,7.177-1.595
		s-1.994-3.589,0-6.18c1.994-2.592,7.975-9.37,13.956-8.374l4.984-4.785c0,0,2.882,3.565,3.987,2.991
		c5.344-2.777,19.937-20.535,19.937-20.535L91.039,84.249c0,0-6.529,3.578-6.679,5.782c-0.166,2.437,5.084,5.782,0,9.769
		c-5.084,3.987-5.483-0.797-7.875-0.997c-2.392-0.199-5.782,4.586-5.782,4.586s-0.399,3.389,2.392,4.586l-4.785,4.386
		c0,0,1.595,4.586,0,6.18c-1.595,1.595-6.779,7.975-7.975,7.975s-3.589-2.193-4.984-0.997c-1.396,1.196-10.168,9.57-10.168,9.57
		s0.797,5.981-3.389,9.171c-4.187,3.19-7.576,2.791-7.576,2.791l-4.785,4.386l1.196,5.383c0,0-3.589-1.595-5.184-0.797
		c-1.595,0.797-3.788,3.389-3.788,3.389L21.783,178.751z"/>
	<path display="inline" fill="none" stroke="#FFFFFF" stroke-width="5" stroke-linecap="round" stroke-miterlimit="10" d="
		M91.039,84.249c0,0-5.782-4.586-5.582-8.174c0.199-3.589,12.76-22.928,18.94-30.703c6.18-7.775,20.735-25.32,25.918-25.121
		s20.709,8.547,29.507,17.345c11.191,11.191,20.136,25.719,18.741,30.304c-1.396,4.586-16.348,21.133-23.526,26.915
		c-7.177,5.782-27.912,18.342-31.7,18.741c-3.788,0.399-7.576-4.586-7.576-4.586"/>
</g>
<g id="Capa_4" display="none">
	<path display="inline" fill-rule="evenodd" clip-rule="evenodd" fill="#FFFFFF" d="M12.36,92.45h60.397V32.053H12.36V92.45z
		 M19.909,39.603h45.298v45.298H19.909V39.603z M12.36,167.947h60.397V107.55H12.36V167.947z M19.909,115.099h45.298v45.298H19.909
		V115.099z M87.856,77.351h105.695v-7.55H87.856V77.351z M87.856,47.152v7.55h105.695v-7.55H87.856z M87.856,130.199h105.695v-7.55
		H87.856V130.199z M87.856,152.848h105.695v-7.55H87.856V152.848z"/>
</g>
<g id="Capa_5">
	<g id="icon_113">
		<path fill-rule="evenodd" clip-rule="evenodd" fill="#0d3955" d="M140.94,33.246h-11.126v11.126h11.126V33.246z M74.186,33.246
			H63.06v11.126h11.126V33.246z M146.502,33.246v16.688h-22.251V33.246H79.749v16.688H57.498V33.246H35.246v133.507h133.507V33.246
			H146.502z M163.191,161.191H40.811V61.06h122.38V161.191z M99.22,138.94h5.561v-25.033h25.033v-5.563h-25.033V83.312H99.22v25.033
			H74.186v5.563H99.22V138.94z"/>
	</g>
</g>
</svg>
