<?xml version="1.0" encoding="utf-8"?>
<!-- Generator: Adobe Illustrator 17.0.0, SVG Export Plug-In . SVG Version: 6.00 Build 0)  -->
<!DOCTYPE svg PUBLIC "-//W3C//DTD SVG 1.1//EN" "http://www.w3.org/Graphics/SVG/1.1/DTD/svg11.dtd">
<svg version="1.1" id="Capa_1" xmlns="http://www.w3.org/2000/svg" xmlns:xlink="http://www.w3.org/1999/xlink" x="0px" y="0px"
	 width="1000px" height="1000px" viewBox="0 0 1000 1000" enable-background="new 0 0 1000 1000" xml:space="preserve">
<polygon display="none" fill-rule="evenodd" clip-rule="evenodd" fill="#FFFFFF" points="423.5,752 583.1,752 370.3,539.2 
	849.1,539.2 849.1,432.8 370.3,432.8 583.1,220 423.5,220 157.5,486 "/>
<path fill-rule="evenodd" clip-rule="evenodd" fill="#FFFFFF" d="M444.167,165h-167.5C214.999,165,165,214.999,165,276.667v167.5
	L555.833,835L835,555.833L444.167,165z M276.667,332.5c-30.834,0-55.833-24.999-55.833-55.833s24.999-55.833,55.833-55.833
	s55.833,24.999,55.833,55.833S307.501,332.5,276.667,332.5z M388.333,583.75L583.75,388.333l55.833,55.833L444.167,639.583
	L388.333,583.75z M500,695.417L695.417,500l55.833,55.833L555.833,751.25L500,695.417z"/>
</svg>
