<?xml version="1.0" encoding="utf-8"?>
<!-- Generator: Adobe Illustrator 17.0.0, SVG Export Plug-In . SVG Version: 6.00 Build 0)  -->
<!DOCTYPE svg PUBLIC "-//W3C//DTD SVG 1.1//EN" "http://www.w3.org/Graphics/SVG/1.1/DTD/svg11.dtd">
<svg version="1.1" id="Capa_1" xmlns="http://www.w3.org/2000/svg" xmlns:xlink="http://www.w3.org/1999/xlink" x="0px" y="0px"
	 width="1000px" height="1000px" viewBox="0 0 1000 1000" enable-background="new 0 0 1000 1000" xml:space="preserve">
<g id="Mastercard_1">
	<g>
		<path fill="#B2BCC2" d="M820.209,179.791H179.791c-58.945,0-106.736,47.791-106.736,106.736v426.946
			c0,58.945,47.791,106.736,106.736,106.736h640.419c58.945,0,106.736-47.791,106.736-106.736V286.527
			C926.946,227.582,879.154,179.791,820.209,179.791z M873.578,713.473c0,29.446-23.949,53.368-53.368,53.368H179.791
			c-29.419,0-53.368-23.922-53.368-53.368V286.527c0-29.445,23.949-53.368,53.368-53.368h640.419
			c29.419,0,53.368,23.923,53.368,53.368V713.473z"/>
	</g>
</g>
<g id="Mastercard_2">
	<g>
		<path fill="#E79E25" d="M606.736,339.895c-88.418,0-160.105,71.687-160.105,160.105c0,88.418,71.687,160.105,160.105,160.105
			S766.841,588.418,766.841,500C766.841,411.583,695.154,339.895,606.736,339.895z"/>
	</g>
</g>
<g id="Mastercard_3">
	<g>
		<path fill="#B53333" d="M393.264,339.895c-88.418,0-160.105,71.687-160.105,160.105c0,88.418,71.687,160.105,160.105,160.105
			S553.368,588.418,553.368,500C553.368,411.583,481.681,339.895,393.264,339.895z"/>
	</g>
</g>
</svg>
